<mxfile host="app.diagrams.net" agent="Mozilla/5.0 (Macintosh; Intel Mac OS X 10_15_7) AppleWebKit/605.1.15 (KHTML, like Gecko) Version/18.0.1 Safari/605.1.15" version="24.8.3">
  <diagram name="Pagina-1" id="EkfTAN4hH_TVddPuiA1x">
    <mxGraphModel dx="1616" dy="478" grid="1" gridSize="10" guides="1" tooltips="1" connect="1" arrows="1" fold="1" page="1" pageScale="1" pageWidth="827" pageHeight="1169" math="0" shadow="0">
      <root>
        <mxCell id="0" />
        <mxCell id="1" parent="0" />
        <mxCell id="Gjo6DUxktxaH3FMSYRhE-1" value="Personale medico" style="rounded=0;whiteSpace=wrap;html=1;" parent="1" vertex="1">
          <mxGeometry x="41" y="600" width="120" height="60" as="geometry" />
        </mxCell>
        <mxCell id="Gjo6DUxktxaH3FMSYRhE-5" value="Pazienti" style="rounded=0;whiteSpace=wrap;html=1;" parent="1" vertex="1">
          <mxGeometry x="800" y="760" width="120" height="60" as="geometry" />
        </mxCell>
        <mxCell id="Gjo6DUxktxaH3FMSYRhE-7" value="&lt;span style=&quot;white-space: nowrap;&quot;&gt;Accompagnatore&lt;/span&gt;" style="rounded=0;whiteSpace=wrap;html=1;" parent="1" vertex="1">
          <mxGeometry x="800" y="1080" width="120" height="60" as="geometry" />
        </mxCell>
        <mxCell id="Gjo6DUxktxaH3FMSYRhE-8" value="Reparti" style="rounded=0;whiteSpace=wrap;html=1;" parent="1" vertex="1">
          <mxGeometry x="399" y="328" width="120" height="60" as="geometry" />
        </mxCell>
        <mxCell id="Gjo6DUxktxaH3FMSYRhE-10" value="Camere" style="rounded=0;whiteSpace=wrap;html=1;" parent="1" vertex="1">
          <mxGeometry x="999" y="328" width="120" height="60" as="geometry" />
        </mxCell>
        <mxCell id="Gjo6DUxktxaH3FMSYRhE-11" value="Sale operatorie" style="rounded=0;whiteSpace=wrap;html=1;" parent="1" vertex="1">
          <mxGeometry x="40" y="1197.33" width="120" height="60" as="geometry" />
        </mxCell>
        <mxCell id="Gjo6DUxktxaH3FMSYRhE-12" value="Operazioni" style="rounded=0;whiteSpace=wrap;html=1;" parent="1" vertex="1">
          <mxGeometry x="39.5" y="921" width="120" height="60" as="geometry" />
        </mxCell>
        <mxCell id="Gjo6DUxktxaH3FMSYRhE-15" value="Farmaci" style="rounded=0;whiteSpace=wrap;html=1;" parent="1" vertex="1">
          <mxGeometry x="399" y="1081.5" width="120" height="60" as="geometry" />
        </mxCell>
        <mxCell id="Gjo6DUxktxaH3FMSYRhE-17" value="Cartella clinica" style="rounded=0;whiteSpace=wrap;html=1;" parent="1" vertex="1">
          <mxGeometry x="600" y="600" width="120" height="60" as="geometry" />
        </mxCell>
        <mxCell id="GProfhIi8R3kbPbWlugL-2" value="" style="endArrow=none;html=1;rounded=0;" parent="1" edge="1">
          <mxGeometry width="50" height="50" relative="1" as="geometry">
            <mxPoint x="106" y="700" as="sourcePoint" />
            <mxPoint x="105.91999999999999" y="700" as="targetPoint" />
          </mxGeometry>
        </mxCell>
        <mxCell id="GProfhIi8R3kbPbWlugL-11" value="lavora" style="shape=rhombus;perimeter=rhombusPerimeter;whiteSpace=wrap;html=1;align=center;" parent="1" vertex="1">
          <mxGeometry x="400" y="459" width="120" height="60" as="geometry" />
        </mxCell>
        <mxCell id="GProfhIi8R3kbPbWlugL-13" value="operano" style="shape=rhombus;perimeter=rhombusPerimeter;whiteSpace=wrap;html=1;align=center;" parent="1" vertex="1">
          <mxGeometry x="40" y="760" width="120" height="60" as="geometry" />
        </mxCell>
        <mxCell id="GProfhIi8R3kbPbWlugL-16" value="fatte" style="shape=rhombus;perimeter=rhombusPerimeter;whiteSpace=wrap;html=1;align=center;" parent="1" vertex="1">
          <mxGeometry x="39.5" y="1080" width="120" height="60" as="geometry" />
        </mxCell>
        <mxCell id="GProfhIi8R3kbPbWlugL-17" value="curano" style="shape=rhombus;perimeter=rhombusPerimeter;whiteSpace=wrap;html=1;align=center;" parent="1" vertex="1">
          <mxGeometry x="200" y="761" width="120" height="60" as="geometry" />
        </mxCell>
        <mxCell id="GProfhIi8R3kbPbWlugL-19" value="scritta/letta" style="shape=rhombus;perimeter=rhombusPerimeter;whiteSpace=wrap;html=1;align=center;" parent="1" vertex="1">
          <mxGeometry x="400" y="600" width="120" height="60" as="geometry" />
        </mxCell>
        <mxCell id="GProfhIi8R3kbPbWlugL-20" value="Ã¨ stato" style="shape=rhombus;perimeter=rhombusPerimeter;whiteSpace=wrap;html=1;align=center;" parent="1" vertex="1">
          <mxGeometry x="1000" y="760" width="120" height="60" as="geometry" />
        </mxCell>
        <mxCell id="GProfhIi8R3kbPbWlugL-32" value="hanno" style="shape=rhombus;perimeter=rhombusPerimeter;whiteSpace=wrap;html=1;align=center;" parent="1" vertex="1">
          <mxGeometry x="799" y="600" width="120" height="60" as="geometry" />
        </mxCell>
        <mxCell id="GProfhIi8R3kbPbWlugL-62" value="sottoposte" style="shape=rhombus;perimeter=rhombusPerimeter;whiteSpace=wrap;html=1;align=center;" parent="1" vertex="1">
          <mxGeometry x="400" y="1200.5" width="120" height="60" as="geometry" />
        </mxCell>
        <mxCell id="EqLmaS4XHGkuEMbsUwe7-32" value="" style="endArrow=none;html=1;rounded=0;entryX=0;entryY=0.5;entryDx=0;entryDy=0;" parent="1" target="GProfhIi8R3kbPbWlugL-20" edge="1">
          <mxGeometry width="50" height="50" relative="1" as="geometry">
            <mxPoint x="920" y="790" as="sourcePoint" />
            <mxPoint x="970" y="740" as="targetPoint" />
          </mxGeometry>
        </mxCell>
        <mxCell id="EqLmaS4XHGkuEMbsUwe7-37" value="" style="endArrow=none;html=1;rounded=0;entryX=0;entryY=0.5;entryDx=0;entryDy=0;" parent="1" target="Gjo6DUxktxaH3FMSYRhE-17" edge="1">
          <mxGeometry width="50" height="50" relative="1" as="geometry">
            <mxPoint x="520" y="630" as="sourcePoint" />
            <mxPoint x="570" y="580" as="targetPoint" />
          </mxGeometry>
        </mxCell>
        <mxCell id="EqLmaS4XHGkuEMbsUwe7-38" value="" style="endArrow=none;html=1;rounded=0;entryX=1;entryY=0.5;entryDx=0;entryDy=0;exitX=0;exitY=0.5;exitDx=0;exitDy=0;" parent="1" source="GProfhIi8R3kbPbWlugL-32" target="Gjo6DUxktxaH3FMSYRhE-17" edge="1">
          <mxGeometry width="50" height="50" relative="1" as="geometry">
            <mxPoint x="660" y="750" as="sourcePoint" />
            <mxPoint x="710" y="710" as="targetPoint" />
          </mxGeometry>
        </mxCell>
        <mxCell id="EqLmaS4XHGkuEMbsUwe7-47" value="" style="endArrow=none;html=1;rounded=0;" parent="1" edge="1">
          <mxGeometry width="50" height="50" relative="1" as="geometry">
            <mxPoint x="700" y="850" as="sourcePoint" />
            <mxPoint x="780" y="810" as="targetPoint" />
          </mxGeometry>
        </mxCell>
        <mxCell id="EqLmaS4XHGkuEMbsUwe7-63" value="" style="endArrow=none;html=1;rounded=0;entryX=0.5;entryY=1;entryDx=0;entryDy=0;" parent="1" target="GProfhIi8R3kbPbWlugL-13" edge="1">
          <mxGeometry width="50" height="50" relative="1" as="geometry">
            <mxPoint x="100" y="920" as="sourcePoint" />
            <mxPoint x="150" y="870" as="targetPoint" />
          </mxGeometry>
        </mxCell>
        <mxCell id="EqLmaS4XHGkuEMbsUwe7-67" value="" style="endArrow=none;html=1;rounded=0;exitX=0.5;exitY=0;exitDx=0;exitDy=0;" parent="1" source="GProfhIi8R3kbPbWlugL-16" edge="1">
          <mxGeometry width="50" height="50" relative="1" as="geometry">
            <mxPoint x="50" y="1030" as="sourcePoint" />
            <mxPoint x="100" y="980" as="targetPoint" />
          </mxGeometry>
        </mxCell>
        <mxCell id="EqLmaS4XHGkuEMbsUwe7-75" value="nome" style="text;html=1;align=center;verticalAlign=middle;resizable=0;points=[];autosize=1;strokeColor=none;fillColor=none;" parent="1" vertex="1">
          <mxGeometry x="-27" y="562" width="50" height="30" as="geometry" />
        </mxCell>
        <mxCell id="EqLmaS4XHGkuEMbsUwe7-76" value="cognome" style="text;html=1;align=center;verticalAlign=middle;resizable=0;points=[];autosize=1;strokeColor=none;fillColor=none;" parent="1" vertex="1">
          <mxGeometry x="26" y="538" width="70" height="30" as="geometry" />
        </mxCell>
        <mxCell id="EqLmaS4XHGkuEMbsUwe7-77" value="id camera" style="text;html=1;align=center;verticalAlign=middle;resizable=0;points=[];autosize=1;strokeColor=none;fillColor=none;" parent="1" vertex="1">
          <mxGeometry x="1064" y="268" width="80" height="30" as="geometry" />
        </mxCell>
        <mxCell id="EqLmaS4XHGkuEMbsUwe7-78" value="num letti" style="text;html=1;align=center;verticalAlign=middle;resizable=0;points=[];autosize=1;strokeColor=none;fillColor=none;" parent="1" vertex="1">
          <mxGeometry x="924" y="368" width="70" height="30" as="geometry" />
        </mxCell>
        <mxCell id="EqLmaS4XHGkuEMbsUwe7-79" value="nome" style="text;html=1;align=center;verticalAlign=middle;resizable=0;points=[];autosize=1;strokeColor=none;fillColor=none;" parent="1" vertex="1">
          <mxGeometry x="755" y="712" width="50" height="30" as="geometry" />
        </mxCell>
        <mxCell id="EqLmaS4XHGkuEMbsUwe7-80" value="cognome" style="text;html=1;align=center;verticalAlign=middle;resizable=0;points=[];autosize=1;strokeColor=none;fillColor=none;" parent="1" vertex="1">
          <mxGeometry x="799" y="690" width="70" height="30" as="geometry" />
        </mxCell>
        <mxCell id="EqLmaS4XHGkuEMbsUwe7-81" value="data&amp;nbsp;&lt;div&gt;nascita&lt;/div&gt;" style="text;html=1;align=center;verticalAlign=middle;resizable=0;points=[];autosize=1;strokeColor=none;fillColor=none;" parent="1" vertex="1">
          <mxGeometry x="895" y="680" width="60" height="40" as="geometry" />
        </mxCell>
        <mxCell id="EqLmaS4XHGkuEMbsUwe7-82" value="comune&amp;nbsp;&lt;div&gt;nascita&lt;/div&gt;" style="text;html=1;align=center;verticalAlign=middle;resizable=0;points=[];autosize=1;strokeColor=none;fillColor=none;" parent="1" vertex="1">
          <mxGeometry x="945" y="726" width="70" height="40" as="geometry" />
        </mxCell>
        <mxCell id="EqLmaS4XHGkuEMbsUwe7-83" value="sesso" style="text;html=1;align=center;verticalAlign=middle;resizable=0;points=[];autosize=1;strokeColor=none;fillColor=none;" parent="1" vertex="1">
          <mxGeometry x="720" y="730" width="50" height="30" as="geometry" />
        </mxCell>
        <mxCell id="EqLmaS4XHGkuEMbsUwe7-87" value="c.f." style="text;html=1;align=center;verticalAlign=middle;resizable=0;points=[];autosize=1;strokeColor=none;fillColor=none;" parent="1" vertex="1">
          <mxGeometry x="876" y="713" width="40" height="30" as="geometry" />
        </mxCell>
        <mxCell id="EqLmaS4XHGkuEMbsUwe7-88" value="id&amp;nbsp;&lt;div&gt;operazione&lt;/div&gt;" style="text;html=1;align=center;verticalAlign=middle;resizable=0;points=[];autosize=1;strokeColor=none;fillColor=none;" parent="1" vertex="1">
          <mxGeometry x="23" y="995" width="80" height="40" as="geometry" />
        </mxCell>
        <mxCell id="EqLmaS4XHGkuEMbsUwe7-89" value="badge&amp;nbsp;&lt;div&gt;chilurgo&lt;/div&gt;" style="text;html=1;align=center;verticalAlign=middle;resizable=0;points=[];autosize=1;strokeColor=none;fillColor=none;" parent="1" vertex="1">
          <mxGeometry x="26" y="864" width="70" height="40" as="geometry" />
        </mxCell>
        <mxCell id="EqLmaS4XHGkuEMbsUwe7-90" value="data" style="text;html=1;align=center;verticalAlign=middle;resizable=0;points=[];autosize=1;strokeColor=none;fillColor=none;" parent="1" vertex="1">
          <mxGeometry x="109.5" y="859" width="50" height="30" as="geometry" />
        </mxCell>
        <mxCell id="EqLmaS4XHGkuEMbsUwe7-91" value="esito" style="text;html=1;align=center;verticalAlign=middle;resizable=0;points=[];autosize=1;strokeColor=none;fillColor=none;" parent="1" vertex="1">
          <mxGeometry x="91" y="1005" width="50" height="30" as="geometry" />
        </mxCell>
        <mxCell id="EqLmaS4XHGkuEMbsUwe7-92" value="id farmaco" style="text;html=1;align=center;verticalAlign=middle;resizable=0;points=[];autosize=1;strokeColor=none;fillColor=none;" parent="1" vertex="1">
          <mxGeometry x="457" y="1025.5" width="80" height="30" as="geometry" />
        </mxCell>
        <mxCell id="EqLmaS4XHGkuEMbsUwe7-93" value="effetti" style="text;html=1;align=center;verticalAlign=middle;resizable=0;points=[];autosize=1;strokeColor=none;fillColor=none;" parent="1" vertex="1">
          <mxGeometry x="328" y="1105" width="50" height="30" as="geometry" />
        </mxCell>
        <mxCell id="EqLmaS4XHGkuEMbsUwe7-94" value="controindicazioni" style="text;html=1;align=center;verticalAlign=middle;resizable=0;points=[];autosize=1;strokeColor=none;fillColor=none;" parent="1" vertex="1">
          <mxGeometry x="525" y="1055" width="110" height="30" as="geometry" />
        </mxCell>
        <mxCell id="EqLmaS4XHGkuEMbsUwe7-95" value="dosaggio" style="text;html=1;align=center;verticalAlign=middle;resizable=0;points=[];autosize=1;strokeColor=none;fillColor=none;" parent="1" vertex="1">
          <mxGeometry x="389" y="1021.5" width="70" height="30" as="geometry" />
        </mxCell>
        <mxCell id="EqLmaS4XHGkuEMbsUwe7-96" value="primario" style="text;html=1;align=center;verticalAlign=middle;resizable=0;points=[];autosize=1;strokeColor=none;fillColor=none;" parent="1" vertex="1">
          <mxGeometry x="141" y="546" width="70" height="30" as="geometry" />
        </mxCell>
        <mxCell id="EqLmaS4XHGkuEMbsUwe7-97" value="salario" style="text;html=1;align=center;verticalAlign=middle;resizable=0;points=[];autosize=1;strokeColor=none;fillColor=none;" parent="1" vertex="1">
          <mxGeometry x="100" y="550.06" width="60" height="30" as="geometry" />
        </mxCell>
        <mxCell id="EqLmaS4XHGkuEMbsUwe7-98" value="nome&lt;div&gt;attrezzatura&lt;/div&gt;" style="text;html=1;align=center;verticalAlign=middle;resizable=0;points=[];autosize=1;strokeColor=none;fillColor=none;" parent="1" vertex="1">
          <mxGeometry x="114" y="265.5" width="90" height="40" as="geometry" />
        </mxCell>
        <mxCell id="EqLmaS4XHGkuEMbsUwe7-99" value="pericolositÃ " style="text;html=1;align=center;verticalAlign=middle;resizable=0;points=[];autosize=1;strokeColor=none;fillColor=none;" parent="1" vertex="1">
          <mxGeometry x="21" y="275.5" width="80" height="30" as="geometry" />
        </mxCell>
        <mxCell id="EqLmaS4XHGkuEMbsUwe7-102" value="piano" style="text;html=1;align=center;verticalAlign=middle;resizable=0;points=[];autosize=1;strokeColor=none;fillColor=none;" parent="1" vertex="1">
          <mxGeometry x="399" y="278.06" width="50" height="30" as="geometry" />
        </mxCell>
        <mxCell id="EqLmaS4XHGkuEMbsUwe7-107" value="id. cartella" style="text;html=1;align=center;verticalAlign=middle;resizable=0;points=[];autosize=1;strokeColor=none;fillColor=none;" parent="1" vertex="1">
          <mxGeometry x="495" y="570" width="80" height="30" as="geometry" />
        </mxCell>
        <mxCell id="EqLmaS4XHGkuEMbsUwe7-108" value="allergie" style="text;html=1;align=center;verticalAlign=middle;resizable=0;points=[];autosize=1;strokeColor=none;fillColor=none;" parent="1" vertex="1">
          <mxGeometry x="580" y="540" width="60" height="30" as="geometry" />
        </mxCell>
        <mxCell id="EqLmaS4XHGkuEMbsUwe7-109" value="patologie" style="text;html=1;align=center;verticalAlign=middle;resizable=0;points=[];autosize=1;strokeColor=none;fillColor=none;" parent="1" vertex="1">
          <mxGeometry x="653" y="546" width="70" height="30" as="geometry" />
        </mxCell>
        <mxCell id="EqLmaS4XHGkuEMbsUwe7-111" value="gruppo&lt;div&gt;&amp;nbsp;sanguigno&amp;nbsp;&lt;/div&gt;" style="text;html=1;align=center;verticalAlign=middle;resizable=0;points=[];autosize=1;strokeColor=none;fillColor=none;" parent="1" vertex="1">
          <mxGeometry x="720" y="560" width="90" height="40" as="geometry" />
        </mxCell>
        <mxCell id="EqLmaS4XHGkuEMbsUwe7-114" value="id sala" style="text;html=1;align=center;verticalAlign=middle;resizable=0;points=[];autosize=1;strokeColor=none;fillColor=none;" parent="1" vertex="1">
          <mxGeometry x="116" y="1146.33" width="60" height="30" as="geometry" />
        </mxCell>
        <mxCell id="EqLmaS4XHGkuEMbsUwe7-115" value="livello&lt;div&gt;&amp;nbsp;attrezzatura&lt;/div&gt;" style="text;html=1;align=center;verticalAlign=middle;resizable=0;points=[];autosize=1;strokeColor=none;fillColor=none;" parent="1" vertex="1">
          <mxGeometry x="-50.5" y="1189" width="90" height="40" as="geometry" />
        </mxCell>
        <mxCell id="EqLmaS4XHGkuEMbsUwe7-116" value="max&amp;nbsp;&lt;div&gt;persone&lt;/div&gt;" style="text;html=1;align=center;verticalAlign=middle;resizable=0;points=[];autosize=1;strokeColor=none;fillColor=none;" parent="1" vertex="1">
          <mxGeometry x="27" y="1130.33" width="70" height="40" as="geometry" />
        </mxCell>
        <mxCell id="EqLmaS4XHGkuEMbsUwe7-117" value="data nascita" style="text;html=1;align=center;verticalAlign=middle;resizable=0;points=[];autosize=1;strokeColor=none;fillColor=none;" parent="1" vertex="1">
          <mxGeometry x="184" y="666" width="90" height="30" as="geometry" />
        </mxCell>
        <mxCell id="EqLmaS4XHGkuEMbsUwe7-119" value="" style="ellipse;whiteSpace=wrap;html=1;aspect=fixed;" parent="1" vertex="1">
          <mxGeometry x="16" y="582" width="10" height="10" as="geometry" />
        </mxCell>
        <mxCell id="EqLmaS4XHGkuEMbsUwe7-120" value="" style="ellipse;whiteSpace=wrap;html=1;aspect=fixed;" parent="1" vertex="1">
          <mxGeometry x="56" y="562" width="10" height="10" as="geometry" />
        </mxCell>
        <mxCell id="EqLmaS4XHGkuEMbsUwe7-123" value="" style="ellipse;whiteSpace=wrap;html=1;aspect=fixed;" parent="1" vertex="1">
          <mxGeometry x="125" y="572.06" width="10" height="10" as="geometry" />
        </mxCell>
        <mxCell id="EqLmaS4XHGkuEMbsUwe7-124" value="" style="ellipse;whiteSpace=wrap;html=1;aspect=fixed;" parent="1" vertex="1">
          <mxGeometry x="166" y="568" width="10" height="10" as="geometry" />
        </mxCell>
        <mxCell id="EqLmaS4XHGkuEMbsUwe7-125" value="" style="ellipse;whiteSpace=wrap;html=1;aspect=fixed;" parent="1" vertex="1">
          <mxGeometry x="182" y="676" width="10" height="10" as="geometry" />
        </mxCell>
        <mxCell id="EqLmaS4XHGkuEMbsUwe7-126" value="badge" style="text;html=1;align=center;verticalAlign=middle;resizable=0;points=[];autosize=1;strokeColor=none;fillColor=none;" parent="1" vertex="1">
          <mxGeometry x="-39" y="638" width="60" height="30" as="geometry" />
        </mxCell>
        <mxCell id="EqLmaS4XHGkuEMbsUwe7-128" value="" style="endArrow=none;html=1;rounded=0;exitX=0.041;exitY=0.007;exitDx=0;exitDy=0;exitPerimeter=0;" parent="1" source="Gjo6DUxktxaH3FMSYRhE-1" edge="1">
          <mxGeometry width="50" height="50" relative="1" as="geometry">
            <mxPoint x="-25" y="640" as="sourcePoint" />
            <mxPoint x="25" y="590" as="targetPoint" />
          </mxGeometry>
        </mxCell>
        <mxCell id="EqLmaS4XHGkuEMbsUwe7-129" value="" style="endArrow=none;html=1;rounded=0;exitX=0.177;exitY=-0.023;exitDx=0;exitDy=0;exitPerimeter=0;" parent="1" source="Gjo6DUxktxaH3FMSYRhE-1" edge="1">
          <mxGeometry width="50" height="50" relative="1" as="geometry">
            <mxPoint x="12" y="622" as="sourcePoint" />
            <mxPoint x="62" y="572" as="targetPoint" />
          </mxGeometry>
        </mxCell>
        <mxCell id="EqLmaS4XHGkuEMbsUwe7-130" value="" style="endArrow=none;html=1;rounded=0;exitX=0.585;exitY=-0.001;exitDx=0;exitDy=0;exitPerimeter=0;" parent="1" edge="1">
          <mxGeometry width="50" height="50" relative="1" as="geometry">
            <mxPoint x="130.20000000000005" y="599.9999999999999" as="sourcePoint" />
            <mxPoint x="130" y="582.06" as="targetPoint" />
          </mxGeometry>
        </mxCell>
        <mxCell id="EqLmaS4XHGkuEMbsUwe7-131" value="" style="endArrow=none;html=1;rounded=0;exitX=0.951;exitY=-0.001;exitDx=0;exitDy=0;exitPerimeter=0;" parent="1" source="Gjo6DUxktxaH3FMSYRhE-1" edge="1">
          <mxGeometry width="50" height="50" relative="1" as="geometry">
            <mxPoint x="119" y="628" as="sourcePoint" />
            <mxPoint x="169" y="578" as="targetPoint" />
          </mxGeometry>
        </mxCell>
        <mxCell id="EqLmaS4XHGkuEMbsUwe7-135" value="" style="ellipse;whiteSpace=wrap;html=1;aspect=fixed;" parent="1" vertex="1">
          <mxGeometry x="419" y="299.06" width="10" height="10" as="geometry" />
        </mxCell>
        <mxCell id="EqLmaS4XHGkuEMbsUwe7-137" value="" style="endArrow=none;html=1;rounded=0;exitX=0.793;exitY=-0.001;exitDx=0;exitDy=0;exitPerimeter=0;" parent="1" edge="1">
          <mxGeometry width="50" height="50" relative="1" as="geometry">
            <mxPoint x="424.1600000000001" y="329.00000000000006" as="sourcePoint" />
            <mxPoint x="424" y="309.06" as="targetPoint" />
          </mxGeometry>
        </mxCell>
        <mxCell id="EqLmaS4XHGkuEMbsUwe7-148" value="" style="endArrow=none;html=1;rounded=0;exitX=0.878;exitY=-0.006;exitDx=0;exitDy=0;exitPerimeter=0;" parent="1" source="Gjo6DUxktxaH3FMSYRhE-10" target="70" edge="1">
          <mxGeometry width="50" height="50" relative="1" as="geometry">
            <mxPoint x="1054" y="348" as="sourcePoint" />
            <mxPoint x="1104" y="298" as="targetPoint" />
          </mxGeometry>
        </mxCell>
        <mxCell id="EqLmaS4XHGkuEMbsUwe7-152" value="nome" style="text;html=1;align=center;verticalAlign=middle;resizable=0;points=[];autosize=1;strokeColor=none;fillColor=none;" parent="1" vertex="1">
          <mxGeometry x="732.07" y="1064" width="50" height="30" as="geometry" />
        </mxCell>
        <mxCell id="EqLmaS4XHGkuEMbsUwe7-153" value="grado di parentela" style="text;html=1;align=center;verticalAlign=middle;resizable=0;points=[];autosize=1;strokeColor=none;fillColor=none;" parent="1" vertex="1">
          <mxGeometry x="925" y="1101" width="120" height="30" as="geometry" />
        </mxCell>
        <mxCell id="EqLmaS4XHGkuEMbsUwe7-154" value="cognome" style="text;html=1;align=center;verticalAlign=middle;resizable=0;points=[];autosize=1;strokeColor=none;fillColor=none;" parent="1" vertex="1">
          <mxGeometry x="775" y="1159" width="70" height="30" as="geometry" />
        </mxCell>
        <mxCell id="EqLmaS4XHGkuEMbsUwe7-155" value="c.f. &lt;br&gt;accompagnatore" style="text;html=1;align=center;verticalAlign=middle;resizable=0;points=[];autosize=1;strokeColor=none;fillColor=none;" parent="1" vertex="1">
          <mxGeometry x="693" y="1111" width="110" height="40" as="geometry" />
        </mxCell>
        <mxCell id="EqLmaS4XHGkuEMbsUwe7-156" value="data&amp;nbsp;&lt;div&gt;nascita&lt;/div&gt;" style="text;html=1;align=center;verticalAlign=middle;resizable=0;points=[];autosize=1;strokeColor=none;fillColor=none;" parent="1" vertex="1">
          <mxGeometry x="865" y="1159" width="60" height="40" as="geometry" />
        </mxCell>
        <mxCell id="EqLmaS4XHGkuEMbsUwe7-157" value="" style="ellipse;whiteSpace=wrap;html=1;aspect=fixed;" parent="1" vertex="1">
          <mxGeometry x="965" y="1101" width="10" height="10" as="geometry" />
        </mxCell>
        <mxCell id="EqLmaS4XHGkuEMbsUwe7-158" value="" style="ellipse;whiteSpace=wrap;html=1;aspect=fixed;" parent="1" vertex="1">
          <mxGeometry x="890" y="1159" width="10" height="10" as="geometry" />
        </mxCell>
        <mxCell id="EqLmaS4XHGkuEMbsUwe7-161" value="" style="ellipse;whiteSpace=wrap;html=1;aspect=fixed;" parent="1" vertex="1">
          <mxGeometry x="753.2800000000001" y="1085" width="10" height="10" as="geometry" />
        </mxCell>
        <mxCell id="EqLmaS4XHGkuEMbsUwe7-162" value="" style="endArrow=none;html=1;rounded=0;entryX=-0.005;entryY=0.153;entryDx=0;entryDy=0;entryPerimeter=0;" parent="1" target="Gjo6DUxktxaH3FMSYRhE-7" edge="1">
          <mxGeometry width="50" height="50" relative="1" as="geometry">
            <mxPoint x="763.2800000000001" y="1089" as="sourcePoint" />
            <mxPoint x="798.2799999999999" y="1082.5" as="targetPoint" />
          </mxGeometry>
        </mxCell>
        <mxCell id="EqLmaS4XHGkuEMbsUwe7-163" value="" style="endArrow=none;html=1;rounded=0;entryX=-0.002;entryY=0.596;entryDx=0;entryDy=0;entryPerimeter=0;exitX=1;exitY=0.5;exitDx=0;exitDy=0;" parent="1" target="Gjo6DUxktxaH3FMSYRhE-7" edge="1">
          <mxGeometry width="50" height="50" relative="1" as="geometry">
            <mxPoint x="773.2800000000002" y="1116" as="sourcePoint" />
            <mxPoint x="799.0000000000001" y="1094.05" as="targetPoint" />
          </mxGeometry>
        </mxCell>
        <mxCell id="EqLmaS4XHGkuEMbsUwe7-164" value="" style="endArrow=none;html=1;rounded=0;entryX=0.174;entryY=1.026;entryDx=0;entryDy=0;entryPerimeter=0;exitX=0.508;exitY=-0.023;exitDx=0;exitDy=0;exitPerimeter=0;" parent="1" edge="1">
          <mxGeometry width="50" height="50" relative="1" as="geometry">
            <mxPoint x="809.5299999999997" y="1169.3100000000002" as="sourcePoint" />
            <mxPoint x="809.8699999999999" y="1140.6499999999999" as="targetPoint" />
          </mxGeometry>
        </mxCell>
        <mxCell id="EqLmaS4XHGkuEMbsUwe7-165" value="" style="endArrow=none;html=1;rounded=0;" parent="1" edge="1">
          <mxGeometry width="50" height="50" relative="1" as="geometry">
            <mxPoint x="895" y="1159" as="sourcePoint" />
            <mxPoint x="895" y="1140" as="targetPoint" />
          </mxGeometry>
        </mxCell>
        <mxCell id="EqLmaS4XHGkuEMbsUwe7-166" value="" style="endArrow=none;html=1;rounded=0;entryX=1.005;entryY=0.426;entryDx=0;entryDy=0;entryPerimeter=0;exitX=0;exitY=0.5;exitDx=0;exitDy=0;" parent="1" source="EqLmaS4XHGkuEMbsUwe7-157" target="Gjo6DUxktxaH3FMSYRhE-7" edge="1">
          <mxGeometry width="50" height="50" relative="1" as="geometry">
            <mxPoint x="955" y="1100.33" as="sourcePoint" />
            <mxPoint x="939.69" y="1080.0049999999999" as="targetPoint" />
          </mxGeometry>
        </mxCell>
        <mxCell id="EqLmaS4XHGkuEMbsUwe7-167" value="" style="ellipse;whiteSpace=wrap;html=1;aspect=fixed;" parent="1" vertex="1">
          <mxGeometry x="945" y="750" width="10" height="10" as="geometry" />
        </mxCell>
        <mxCell id="EqLmaS4XHGkuEMbsUwe7-168" value="" style="ellipse;whiteSpace=wrap;html=1;aspect=fixed;" parent="1" vertex="1">
          <mxGeometry x="910" y="718" width="10" height="10" as="geometry" />
        </mxCell>
        <mxCell id="EqLmaS4XHGkuEMbsUwe7-170" value="" style="ellipse;whiteSpace=wrap;html=1;aspect=fixed;" parent="1" vertex="1">
          <mxGeometry x="840" y="718" width="10" height="10" as="geometry" />
        </mxCell>
        <mxCell id="EqLmaS4XHGkuEMbsUwe7-171" value="" style="ellipse;whiteSpace=wrap;html=1;aspect=fixed;" parent="1" vertex="1">
          <mxGeometry x="789" y="731" width="10" height="10" as="geometry" />
        </mxCell>
        <mxCell id="EqLmaS4XHGkuEMbsUwe7-172" value="" style="ellipse;whiteSpace=wrap;html=1;aspect=fixed;" parent="1" vertex="1">
          <mxGeometry x="763" y="742" width="10" height="10" as="geometry" />
        </mxCell>
        <mxCell id="EqLmaS4XHGkuEMbsUwe7-173" value="" style="endArrow=none;html=1;rounded=0;entryX=0.981;entryY=0.635;entryDx=0;entryDy=0;entryPerimeter=0;exitX=-0.009;exitY=0.04;exitDx=0;exitDy=0;exitPerimeter=0;" parent="1" source="Gjo6DUxktxaH3FMSYRhE-5" target="EqLmaS4XHGkuEMbsUwe7-172" edge="1">
          <mxGeometry width="50" height="50" relative="1" as="geometry">
            <mxPoint x="750" y="810" as="sourcePoint" />
            <mxPoint x="800" y="760" as="targetPoint" />
          </mxGeometry>
        </mxCell>
        <mxCell id="EqLmaS4XHGkuEMbsUwe7-174" value="" style="endArrow=none;html=1;rounded=0;exitX=0.043;exitY=-0.012;exitDx=0;exitDy=0;exitPerimeter=0;entryX=0.739;entryY=0.925;entryDx=0;entryDy=0;entryPerimeter=0;" parent="1" source="Gjo6DUxktxaH3FMSYRhE-5" edge="1" target="EqLmaS4XHGkuEMbsUwe7-171">
          <mxGeometry width="50" height="50" relative="1" as="geometry">
            <mxPoint x="755" y="788" as="sourcePoint" />
            <mxPoint x="805" y="738" as="targetPoint" />
          </mxGeometry>
        </mxCell>
        <mxCell id="EqLmaS4XHGkuEMbsUwe7-175" value="" style="endArrow=none;html=1;rounded=0;exitX=0.379;exitY=-0.012;exitDx=0;exitDy=0;exitPerimeter=0;" parent="1" source="Gjo6DUxktxaH3FMSYRhE-5" edge="1">
          <mxGeometry width="50" height="50" relative="1" as="geometry">
            <mxPoint x="795" y="778" as="sourcePoint" />
            <mxPoint x="845" y="728" as="targetPoint" />
          </mxGeometry>
        </mxCell>
        <mxCell id="EqLmaS4XHGkuEMbsUwe7-176" value="" style="endArrow=none;html=1;rounded=0;exitX=0.621;exitY=0.001;exitDx=0;exitDy=0;exitPerimeter=0;entryX=1.104;entryY=0.499;entryDx=0;entryDy=0;entryPerimeter=0;" parent="1" edge="1" target="69">
          <mxGeometry width="50" height="50" relative="1" as="geometry">
            <mxPoint x="894.52" y="760" as="sourcePoint" />
            <mxPoint x="895" y="739.94" as="targetPoint" />
          </mxGeometry>
        </mxCell>
        <mxCell id="EqLmaS4XHGkuEMbsUwe7-177" value="" style="endArrow=none;html=1;rounded=0;exitX=0.959;exitY=-0.002;exitDx=0;exitDy=0;exitPerimeter=0;" parent="1" source="Gjo6DUxktxaH3FMSYRhE-5" edge="1">
          <mxGeometry width="50" height="50" relative="1" as="geometry">
            <mxPoint x="865" y="778" as="sourcePoint" />
            <mxPoint x="915" y="728" as="targetPoint" />
          </mxGeometry>
        </mxCell>
        <mxCell id="EqLmaS4XHGkuEMbsUwe7-178" value="" style="endArrow=none;html=1;rounded=0;exitX=0.999;exitY=0.152;exitDx=0;exitDy=0;exitPerimeter=0;" parent="1" source="Gjo6DUxktxaH3FMSYRhE-5" edge="1">
          <mxGeometry width="50" height="50" relative="1" as="geometry">
            <mxPoint x="896" y="807" as="sourcePoint" />
            <mxPoint x="946" y="757" as="targetPoint" />
          </mxGeometry>
        </mxCell>
        <mxCell id="EqLmaS4XHGkuEMbsUwe7-180" value="" style="ellipse;whiteSpace=wrap;html=1;aspect=fixed;" parent="1" vertex="1">
          <mxGeometry x="683" y="569" width="10" height="10" as="geometry" />
        </mxCell>
        <mxCell id="EqLmaS4XHGkuEMbsUwe7-181" value="" style="ellipse;whiteSpace=wrap;html=1;aspect=fixed;" parent="1" vertex="1">
          <mxGeometry x="605" y="562" width="10" height="10" as="geometry" />
        </mxCell>
        <mxCell id="EqLmaS4XHGkuEMbsUwe7-182" value="" style="ellipse;whiteSpace=wrap;html=1;aspect=fixed;" parent="1" vertex="1">
          <mxGeometry x="730" y="572" width="10" height="10" as="geometry" />
        </mxCell>
        <mxCell id="EqLmaS4XHGkuEMbsUwe7-183" value="" style="ellipse;whiteSpace=wrap;html=1;aspect=fixed;" parent="1" vertex="1">
          <mxGeometry x="690" y="678" width="10" height="10" as="geometry" />
        </mxCell>
        <mxCell id="EqLmaS4XHGkuEMbsUwe7-184" value="" style="endArrow=none;html=1;rounded=0;exitX=-0.003;exitY=0.122;exitDx=0;exitDy=0;exitPerimeter=0;" parent="1" source="Gjo6DUxktxaH3FMSYRhE-17" edge="1">
          <mxGeometry width="50" height="50" relative="1" as="geometry">
            <mxPoint x="530" y="646" as="sourcePoint" />
            <mxPoint x="580" y="596" as="targetPoint" />
          </mxGeometry>
        </mxCell>
        <mxCell id="EqLmaS4XHGkuEMbsUwe7-185" value="" style="endArrow=none;html=1;rounded=0;exitX=0.083;exitY=-0.012;exitDx=0;exitDy=0;exitPerimeter=0;" parent="1" source="Gjo6DUxktxaH3FMSYRhE-17" edge="1">
          <mxGeometry width="50" height="50" relative="1" as="geometry">
            <mxPoint x="560" y="622" as="sourcePoint" />
            <mxPoint x="610" y="572" as="targetPoint" />
          </mxGeometry>
        </mxCell>
        <mxCell id="EqLmaS4XHGkuEMbsUwe7-186" value="" style="endArrow=none;html=1;rounded=0;exitX=0.737;exitY=-0.006;exitDx=0;exitDy=0;exitPerimeter=0;" parent="1" source="Gjo6DUxktxaH3FMSYRhE-17" edge="1">
          <mxGeometry width="50" height="50" relative="1" as="geometry">
            <mxPoint x="639" y="629" as="sourcePoint" />
            <mxPoint x="689" y="579" as="targetPoint" />
          </mxGeometry>
        </mxCell>
        <mxCell id="EqLmaS4XHGkuEMbsUwe7-187" value="" style="endArrow=none;html=1;rounded=0;" parent="1" edge="1">
          <mxGeometry width="50" height="50" relative="1" as="geometry">
            <mxPoint x="710" y="600" as="sourcePoint" />
            <mxPoint x="731" y="579" as="targetPoint" />
          </mxGeometry>
        </mxCell>
        <mxCell id="EqLmaS4XHGkuEMbsUwe7-188" value="" style="endArrow=none;html=1;rounded=0;exitX=0.5;exitY=0;exitDx=0;exitDy=0;" parent="1" source="EqLmaS4XHGkuEMbsUwe7-183" edge="1">
          <mxGeometry width="50" height="50" relative="1" as="geometry">
            <mxPoint x="646" y="710" as="sourcePoint" />
            <mxPoint x="696" y="660" as="targetPoint" />
          </mxGeometry>
        </mxCell>
        <mxCell id="EqLmaS4XHGkuEMbsUwe7-191" value="" style="endArrow=none;html=1;rounded=0;exitX=0.172;exitY=-0.009;exitDx=0;exitDy=0;exitPerimeter=0;" parent="1" edge="1">
          <mxGeometry width="50" height="50" relative="1" as="geometry">
            <mxPoint x="160.0000000000001" y="328.49999999999994" as="sourcePoint" />
            <mxPoint x="160" y="308.5" as="targetPoint" />
          </mxGeometry>
        </mxCell>
        <mxCell id="EqLmaS4XHGkuEMbsUwe7-195" value="" style="ellipse;whiteSpace=wrap;html=1;aspect=fixed;" parent="1" vertex="1">
          <mxGeometry x="55" y="1166.33" width="10" height="10" as="geometry" />
        </mxCell>
        <mxCell id="EqLmaS4XHGkuEMbsUwe7-198" value="" style="ellipse;whiteSpace=wrap;html=1;aspect=fixed;" parent="1" vertex="1">
          <mxGeometry x="-10" y="1222.33" width="10" height="10" as="geometry" />
        </mxCell>
        <mxCell id="EqLmaS4XHGkuEMbsUwe7-199" value="" style="ellipse;whiteSpace=wrap;html=1;aspect=fixed;" parent="1" vertex="1">
          <mxGeometry x="419" y="1046.5" width="10" height="10" as="geometry" />
        </mxCell>
        <mxCell id="EqLmaS4XHGkuEMbsUwe7-201" value="" style="ellipse;whiteSpace=wrap;html=1;aspect=fixed;" parent="1" vertex="1">
          <mxGeometry x="370" y="1115" width="10" height="10" as="geometry" />
        </mxCell>
        <mxCell id="EqLmaS4XHGkuEMbsUwe7-202" value="" style="ellipse;whiteSpace=wrap;html=1;aspect=fixed;" parent="1" vertex="1">
          <mxGeometry x="557" y="1075" width="10" height="10" as="geometry" />
        </mxCell>
        <mxCell id="EqLmaS4XHGkuEMbsUwe7-203" value="" style="ellipse;whiteSpace=wrap;html=1;aspect=fixed;" parent="1" vertex="1">
          <mxGeometry x="135" y="881" width="10" height="10" as="geometry" />
        </mxCell>
        <mxCell id="EqLmaS4XHGkuEMbsUwe7-206" value="" style="ellipse;whiteSpace=wrap;html=1;aspect=fixed;" parent="1" vertex="1">
          <mxGeometry x="59.5" y="898" width="10" height="10" as="geometry" />
        </mxCell>
        <mxCell id="EqLmaS4XHGkuEMbsUwe7-208" value="" style="endArrow=none;html=1;rounded=0;exitX=0.219;exitY=-0.018;exitDx=0;exitDy=0;exitPerimeter=0;" parent="1" source="Gjo6DUxktxaH3FMSYRhE-15" edge="1">
          <mxGeometry width="50" height="50" relative="1" as="geometry">
            <mxPoint x="375" y="1106.5" as="sourcePoint" />
            <mxPoint x="425" y="1056.5" as="targetPoint" />
          </mxGeometry>
        </mxCell>
        <mxCell id="EqLmaS4XHGkuEMbsUwe7-209" value="" style="endArrow=none;html=1;rounded=0;exitX=0.75;exitY=0;exitDx=0;exitDy=0;entryX=0.5;entryY=1;entryDx=0;entryDy=0;" parent="1" source="Gjo6DUxktxaH3FMSYRhE-15" edge="1">
          <mxGeometry width="50" height="50" relative="1" as="geometry">
            <mxPoint x="439" y="1101.5" as="sourcePoint" />
            <mxPoint x="489" y="1050.5" as="targetPoint" />
          </mxGeometry>
        </mxCell>
        <mxCell id="EqLmaS4XHGkuEMbsUwe7-210" value="" style="endArrow=none;html=1;rounded=0;entryX=-0.003;entryY=0.647;entryDx=0;entryDy=0;entryPerimeter=0;" parent="1" target="Gjo6DUxktxaH3FMSYRhE-15" edge="1">
          <mxGeometry width="50" height="50" relative="1" as="geometry">
            <mxPoint x="380" y="1120" as="sourcePoint" />
            <mxPoint x="389.0000000000001" y="1120.3300000000002" as="targetPoint" />
          </mxGeometry>
        </mxCell>
        <mxCell id="EqLmaS4XHGkuEMbsUwe7-211" value="" style="endArrow=none;html=1;rounded=0;exitX=0.301;exitY=0.936;exitDx=0;exitDy=0;exitPerimeter=0;" parent="1" edge="1" source="EqLmaS4XHGkuEMbsUwe7-94">
          <mxGeometry width="50" height="50" relative="1" as="geometry">
            <mxPoint x="540" y="1110" as="sourcePoint" />
            <mxPoint x="520" y="1110" as="targetPoint" />
          </mxGeometry>
        </mxCell>
        <mxCell id="EqLmaS4XHGkuEMbsUwe7-215" value="" style="endArrow=none;html=1;rounded=0;exitX=0.173;exitY=-0.017;exitDx=0;exitDy=0;exitPerimeter=0;entryX=0.5;entryY=1;entryDx=0;entryDy=0;" parent="1" source="Gjo6DUxktxaH3FMSYRhE-11" target="EqLmaS4XHGkuEMbsUwe7-195" edge="1">
          <mxGeometry width="50" height="50" relative="1" as="geometry">
            <mxPoint x="10" y="1227.33" as="sourcePoint" />
            <mxPoint x="60" y="1177.33" as="targetPoint" />
          </mxGeometry>
        </mxCell>
        <mxCell id="EqLmaS4XHGkuEMbsUwe7-216" value="" style="endArrow=none;html=1;rounded=0;entryX=0.5;entryY=1;entryDx=0;entryDy=0;" parent="1" edge="1">
          <mxGeometry width="50" height="50" relative="1" as="geometry">
            <mxPoint x="145" y="1197.33" as="sourcePoint" />
            <mxPoint x="145" y="1176.33" as="targetPoint" />
          </mxGeometry>
        </mxCell>
        <mxCell id="EqLmaS4XHGkuEMbsUwe7-219" value="" style="endArrow=none;html=1;rounded=0;exitX=0.88;exitY=0.952;exitDx=0;exitDy=0;exitPerimeter=0;" parent="1" edge="1">
          <mxGeometry width="50" height="50" relative="1" as="geometry">
            <mxPoint x="66.09999999999991" y="921.0799999999999" as="sourcePoint" />
            <mxPoint x="65.5" y="908" as="targetPoint" />
          </mxGeometry>
        </mxCell>
        <mxCell id="EqLmaS4XHGkuEMbsUwe7-220" value="" style="endArrow=none;html=1;rounded=0;entryX=0.5;entryY=1;entryDx=0;entryDy=0;" parent="1" target="EqLmaS4XHGkuEMbsUwe7-203" edge="1">
          <mxGeometry width="50" height="50" relative="1" as="geometry">
            <mxPoint x="140" y="920" as="sourcePoint" />
            <mxPoint x="186.5" y="927" as="targetPoint" />
          </mxGeometry>
        </mxCell>
        <mxCell id="EqLmaS4XHGkuEMbsUwe7-221" value="" style="endArrow=none;html=1;rounded=0;exitX=0.596;exitY=1.007;exitDx=0;exitDy=0;exitPerimeter=0;" parent="1" source="EqLmaS4XHGkuEMbsUwe7-205" edge="1">
          <mxGeometry width="50" height="50" relative="1" as="geometry">
            <mxPoint x="107.37999999999988" y="981.1799999999998" as="sourcePoint" />
            <mxPoint x="111" y="1010" as="targetPoint" />
          </mxGeometry>
        </mxCell>
        <mxCell id="3" value="" style="endArrow=none;html=1;exitX=0.5;exitY=0;exitDx=0;exitDy=0;entryX=0.5;entryY=1;entryDx=0;entryDy=0;" parent="1" source="Gjo6DUxktxaH3FMSYRhE-12" edge="1">
          <mxGeometry width="50" height="50" relative="1" as="geometry">
            <mxPoint x="69.5" y="782" as="sourcePoint" />
            <mxPoint x="99.5" y="872" as="targetPoint" />
          </mxGeometry>
        </mxCell>
        <mxCell id="24" value="" style="endArrow=none;html=1;rounded=0;exitX=0.167;exitY=-0.009;exitDx=0;exitDy=0;exitPerimeter=0;" parent="1" source="Gjo6DUxktxaH3FMSYRhE-14" target="EqLmaS4XHGkuEMbsUwe7-189" edge="1">
          <mxGeometry width="50" height="50" relative="1" as="geometry">
            <mxPoint x="229" y="328" as="sourcePoint" />
            <mxPoint x="234" y="298" as="targetPoint" />
          </mxGeometry>
        </mxCell>
        <mxCell id="EqLmaS4XHGkuEMbsUwe7-189" value="" style="ellipse;whiteSpace=wrap;html=1;aspect=fixed;" parent="1" vertex="1">
          <mxGeometry x="55" y="296.5" width="10" height="10" as="geometry" />
        </mxCell>
        <mxCell id="GProfhIi8R3kbPbWlugL-12" value="situate" style="shape=rhombus;perimeter=rhombusPerimeter;whiteSpace=wrap;html=1;align=center;" parent="1" vertex="1">
          <mxGeometry x="200" y="328" width="120" height="60" as="geometry" />
        </mxCell>
        <mxCell id="32" value="" style="endArrow=none;html=1;entryX=1.007;entryY=0.499;entryDx=0;entryDy=0;entryPerimeter=0;exitX=0.007;exitY=0.877;exitDx=0;exitDy=0;exitPerimeter=0;" parent="1" source="Gjo6DUxktxaH3FMSYRhE-1" target="EqLmaS4XHGkuEMbsUwe7-126" edge="1">
          <mxGeometry width="50" height="50" relative="1" as="geometry">
            <mxPoint x="86" y="600" as="sourcePoint" />
            <mxPoint x="136" y="550" as="targetPoint" />
          </mxGeometry>
        </mxCell>
        <mxCell id="33" value="" style="endArrow=none;html=1;exitX=1;exitY=0.5;exitDx=0;exitDy=0;" parent="1" source="Gjo6DUxktxaH3FMSYRhE-14" edge="1">
          <mxGeometry width="50" height="50" relative="1" as="geometry">
            <mxPoint x="104" y="406.5" as="sourcePoint" />
            <mxPoint x="154" y="358.5" as="targetPoint" />
          </mxGeometry>
        </mxCell>
        <mxCell id="35" value="" style="endArrow=none;html=1;" parent="1" edge="1">
          <mxGeometry width="50" height="50" relative="1" as="geometry">
            <mxPoint x="119.86000000000001" y="418" as="sourcePoint" />
            <mxPoint x="119.86000000000001" y="388" as="targetPoint" />
          </mxGeometry>
        </mxCell>
        <mxCell id="36" value="" style="ellipse;whiteSpace=wrap;html=1;aspect=fixed;" parent="1" vertex="1">
          <mxGeometry x="115" y="418" width="10" height="10" as="geometry" />
        </mxCell>
        <mxCell id="37" value="tipo di attrezzatura" style="text;html=1;align=center;verticalAlign=middle;resizable=0;points=[];autosize=1;strokeColor=none;fillColor=none;" parent="1" vertex="1">
          <mxGeometry x="118" y="408" width="120" height="30" as="geometry" />
        </mxCell>
        <mxCell id="DA8NWegLXy8gjZj4K9O9-37" value="nome&lt;br&gt;reparto" style="text;html=1;align=center;verticalAlign=middle;resizable=0;points=[];autosize=1;strokeColor=none;fillColor=none;" parent="1" vertex="1">
          <mxGeometry x="474" y="258" width="60" height="40" as="geometry" />
        </mxCell>
        <mxCell id="DA8NWegLXy8gjZj4K9O9-39" value="" style="endArrow=none;html=1;rounded=0;exitX=0.793;exitY=-0.001;exitDx=0;exitDy=0;exitPerimeter=0;" parent="1" edge="1">
          <mxGeometry width="50" height="50" relative="1" as="geometry">
            <mxPoint x="502.0200000000001" y="328.00000000000006" as="sourcePoint" />
            <mxPoint x="501.86" y="308.06" as="targetPoint" />
          </mxGeometry>
        </mxCell>
        <mxCell id="DA8NWegLXy8gjZj4K9O9-40" value="disponibilitÃ " style="text;html=1;align=center;verticalAlign=middle;resizable=0;points=[];autosize=1;strokeColor=none;fillColor=none;" parent="1" vertex="1">
          <mxGeometry x="974" y="273" width="90" height="30" as="geometry" />
        </mxCell>
        <mxCell id="DA8NWegLXy8gjZj4K9O9-41" value="specializzazione" style="text;html=1;align=center;verticalAlign=middle;resizable=0;points=[];autosize=1;strokeColor=none;fillColor=none;" parent="1" vertex="1">
          <mxGeometry x="174" y="636" width="110" height="30" as="geometry" />
        </mxCell>
        <mxCell id="DA8NWegLXy8gjZj4K9O9-42" value="" style="ellipse;whiteSpace=wrap;html=1;aspect=fixed;" parent="1" vertex="1">
          <mxGeometry x="174" y="646" width="10" height="10" as="geometry" />
        </mxCell>
        <mxCell id="DA8NWegLXy8gjZj4K9O9-43" value="" style="endArrow=none;html=1;rounded=0;exitX=0;exitY=0.5;exitDx=0;exitDy=0;entryX=1.006;entryY=0.713;entryDx=0;entryDy=0;entryPerimeter=0;" parent="1" source="DA8NWegLXy8gjZj4K9O9-42" target="Gjo6DUxktxaH3FMSYRhE-1" edge="1">
          <mxGeometry width="50" height="50" relative="1" as="geometry">
            <mxPoint x="166" y="658" as="sourcePoint" />
            <mxPoint x="166" y="640" as="targetPoint" />
          </mxGeometry>
        </mxCell>
        <mxCell id="DA8NWegLXy8gjZj4K9O9-44" value="capacitÃ &amp;nbsp;&lt;div&gt;massima&lt;/div&gt;" style="text;html=1;align=center;verticalAlign=middle;resizable=0;points=[];autosize=1;strokeColor=none;fillColor=none;" parent="1" vertex="1">
          <mxGeometry x="324" y="298" width="70" height="40" as="geometry" />
        </mxCell>
        <mxCell id="DA8NWegLXy8gjZj4K9O9-45" value="" style="ellipse;whiteSpace=wrap;html=1;aspect=fixed;" parent="1" vertex="1">
          <mxGeometry x="353" y="332" width="10" height="10" as="geometry" />
        </mxCell>
        <mxCell id="DA8NWegLXy8gjZj4K9O9-46" value="" style="endArrow=none;html=1;rounded=0;exitX=-0.006;exitY=0.172;exitDx=0;exitDy=0;exitPerimeter=0;" parent="1" source="Gjo6DUxktxaH3FMSYRhE-8" edge="1">
          <mxGeometry width="50" height="50" relative="1" as="geometry">
            <mxPoint x="363" y="357" as="sourcePoint" />
            <mxPoint x="363" y="338" as="targetPoint" />
          </mxGeometry>
        </mxCell>
        <mxCell id="DA8NWegLXy8gjZj4K9O9-47" value="stato&lt;div&gt;manutenzione&lt;/div&gt;" style="text;html=1;align=center;verticalAlign=middle;resizable=0;points=[];autosize=1;strokeColor=none;fillColor=none;" parent="1" vertex="1">
          <mxGeometry x="61" y="225.5" width="100" height="40" as="geometry" />
        </mxCell>
        <mxCell id="DA8NWegLXy8gjZj4K9O9-48" value="" style="ellipse;whiteSpace=wrap;html=1;aspect=fixed;" parent="1" vertex="1">
          <mxGeometry x="103" y="270.5" width="10" height="10" as="geometry" />
        </mxCell>
        <mxCell id="DA8NWegLXy8gjZj4K9O9-49" value="" style="endArrow=none;html=1;rounded=0;exitX=0.568;exitY=-0.014;exitDx=0;exitDy=0;exitPerimeter=0;entryX=0.5;entryY=1;entryDx=0;entryDy=0;" parent="1" source="Gjo6DUxktxaH3FMSYRhE-14" target="DA8NWegLXy8gjZj4K9O9-48" edge="1">
          <mxGeometry width="50" height="50" relative="1" as="geometry">
            <mxPoint x="264" y="328.5" as="sourcePoint" />
            <mxPoint x="263" y="291.5" as="targetPoint" />
          </mxGeometry>
        </mxCell>
        <mxCell id="DA8NWegLXy8gjZj4K9O9-52" value="durata" style="text;html=1;align=center;verticalAlign=middle;resizable=0;points=[];autosize=1;strokeColor=none;fillColor=none;" parent="1" vertex="1">
          <mxGeometry x="-14" y="904" width="60" height="30" as="geometry" />
        </mxCell>
        <mxCell id="DA8NWegLXy8gjZj4K9O9-53" value="" style="ellipse;whiteSpace=wrap;html=1;aspect=fixed;" parent="1" vertex="1">
          <mxGeometry x="11" y="925" width="10" height="10" as="geometry" />
        </mxCell>
        <mxCell id="DA8NWegLXy8gjZj4K9O9-54" value="" style="endArrow=none;html=1;rounded=0;exitX=-0.001;exitY=0.564;exitDx=0;exitDy=0;exitPerimeter=0;" parent="1" edge="1">
          <mxGeometry width="50" height="50" relative="1" as="geometry">
            <mxPoint x="39.38000000000011" y="929.8399999999999" as="sourcePoint" />
            <mxPoint x="20" y="930" as="targetPoint" />
          </mxGeometry>
        </mxCell>
        <mxCell id="DA8NWegLXy8gjZj4K9O9-55" value="" style="ellipse;whiteSpace=wrap;html=1;aspect=fixed;" parent="1" vertex="1">
          <mxGeometry x="1019" y="296" width="10" height="10" as="geometry" />
        </mxCell>
        <mxCell id="DA8NWegLXy8gjZj4K9O9-56" value="" style="endArrow=none;html=1;rounded=0;" parent="1" edge="1">
          <mxGeometry width="50" height="50" relative="1" as="geometry">
            <mxPoint x="1024" y="328" as="sourcePoint" />
            <mxPoint x="1023.8599999999999" y="306" as="targetPoint" />
          </mxGeometry>
        </mxCell>
        <mxCell id="73U9c0HWaYGPaKn10Cvo-39" value="" style="endArrow=none;html=1;rounded=0;" parent="1" edge="1">
          <mxGeometry width="50" height="50" relative="1" as="geometry">
            <mxPoint x="129.61" y="680" as="sourcePoint" />
            <mxPoint x="260" y="740" as="targetPoint" />
          </mxGeometry>
        </mxCell>
        <mxCell id="73U9c0HWaYGPaKn10Cvo-42" value="" style="endArrow=none;html=1;rounded=0;exitX=0.5;exitY=0;exitDx=0;exitDy=0;" parent="1" edge="1" source="GProfhIi8R3kbPbWlugL-17">
          <mxGeometry width="50" height="50" relative="1" as="geometry">
            <mxPoint x="260" y="760" as="sourcePoint" />
            <mxPoint x="260" y="740" as="targetPoint" />
          </mxGeometry>
        </mxCell>
        <mxCell id="73U9c0HWaYGPaKn10Cvo-50" value="" style="endArrow=none;html=1;rounded=0;entryX=0.913;entryY=1.003;entryDx=0;entryDy=0;entryPerimeter=0;exitX=0.067;exitY=0.341;exitDx=0;exitDy=0;exitPerimeter=0;" parent="1" source="EqLmaS4XHGkuEMbsUwe7-125" target="Gjo6DUxktxaH3FMSYRhE-1" edge="1">
          <mxGeometry width="50" height="50" relative="1" as="geometry">
            <mxPoint x="170" y="680" as="sourcePoint" />
            <mxPoint x="220" y="630" as="targetPoint" />
          </mxGeometry>
        </mxCell>
        <mxCell id="73U9c0HWaYGPaKn10Cvo-66" value="Accompagna" style="shape=rhombus;perimeter=rhombusPerimeter;whiteSpace=wrap;html=1;align=center;" parent="1" vertex="1">
          <mxGeometry x="800" y="920" width="120" height="60" as="geometry" />
        </mxCell>
        <mxCell id="73U9c0HWaYGPaKn10Cvo-68" value="" style="ellipse;whiteSpace=wrap;html=1;aspect=fixed;" parent="1" vertex="1">
          <mxGeometry x="805" y="1160" width="10" height="10" as="geometry" />
        </mxCell>
        <mxCell id="73U9c0HWaYGPaKn10Cvo-70" value="" style="endArrow=none;html=1;rounded=0;exitX=0.5;exitY=0;exitDx=0;exitDy=0;" parent="1" source="73U9c0HWaYGPaKn10Cvo-66" edge="1">
          <mxGeometry width="50" height="50" relative="1" as="geometry">
            <mxPoint x="810" y="870" as="sourcePoint" />
            <mxPoint x="860" y="820" as="targetPoint" />
          </mxGeometry>
        </mxCell>
        <mxCell id="73U9c0HWaYGPaKn10Cvo-72" value="" style="endArrow=none;html=1;rounded=0;entryX=0.5;entryY=1;entryDx=0;entryDy=0;" parent="1" target="73U9c0HWaYGPaKn10Cvo-66" edge="1">
          <mxGeometry width="50" height="50" relative="1" as="geometry">
            <mxPoint x="860" y="1080" as="sourcePoint" />
            <mxPoint x="910" y="1030" as="targetPoint" />
          </mxGeometry>
        </mxCell>
        <mxCell id="Gjo6DUxktxaH3FMSYRhE-14" value="Attrezzatura medica" style="rounded=0;whiteSpace=wrap;html=1;" parent="1" vertex="1">
          <mxGeometry x="40" y="328.5" width="120" height="60" as="geometry" />
        </mxCell>
        <mxCell id="73U9c0HWaYGPaKn10Cvo-81" value="" style="endArrow=none;html=1;rounded=0;" parent="1" edge="1">
          <mxGeometry width="50" height="50" relative="1" as="geometry">
            <mxPoint x="130" y="680" as="sourcePoint" />
            <mxPoint x="130" y="660" as="targetPoint" />
          </mxGeometry>
        </mxCell>
        <mxCell id="73U9c0HWaYGPaKn10Cvo-82" value="" style="endArrow=none;html=1;rounded=0;exitX=0.5;exitY=0;exitDx=0;exitDy=0;" parent="1" source="GProfhIi8R3kbPbWlugL-13" edge="1">
          <mxGeometry width="50" height="50" relative="1" as="geometry">
            <mxPoint x="50" y="710" as="sourcePoint" />
            <mxPoint x="100" y="660" as="targetPoint" />
          </mxGeometry>
        </mxCell>
        <mxCell id="73U9c0HWaYGPaKn10Cvo-83" value="" style="endArrow=none;html=1;rounded=0;entryX=0;entryY=0.5;entryDx=0;entryDy=0;" parent="1" target="GProfhIi8R3kbPbWlugL-19" edge="1">
          <mxGeometry width="50" height="50" relative="1" as="geometry">
            <mxPoint x="160" y="630" as="sourcePoint" />
            <mxPoint x="210" y="580" as="targetPoint" />
          </mxGeometry>
        </mxCell>
        <mxCell id="73U9c0HWaYGPaKn10Cvo-86" value="" style="endArrow=none;html=1;rounded=0;" parent="1" edge="1">
          <mxGeometry width="50" height="50" relative="1" as="geometry">
            <mxPoint x="780" y="810" as="sourcePoint" />
            <mxPoint x="800" y="810" as="targetPoint" />
          </mxGeometry>
        </mxCell>
        <mxCell id="73U9c0HWaYGPaKn10Cvo-102" value="capo&amp;nbsp;&lt;div&gt;reparto&lt;/div&gt;" style="text;html=1;align=center;verticalAlign=middle;resizable=0;points=[];autosize=1;strokeColor=none;fillColor=none;" parent="1" vertex="1">
          <mxGeometry x="542" y="364.5" width="60" height="40" as="geometry" />
        </mxCell>
        <mxCell id="73U9c0HWaYGPaKn10Cvo-103" value="" style="ellipse;whiteSpace=wrap;html=1;aspect=fixed;" parent="1" vertex="1">
          <mxGeometry x="544" y="379" width="10" height="10" as="geometry" />
        </mxCell>
        <mxCell id="73U9c0HWaYGPaKn10Cvo-105" value="" style="endArrow=none;html=1;rounded=0;exitX=0;exitY=0.5;exitDx=0;exitDy=0;" parent="1" source="73U9c0HWaYGPaKn10Cvo-103" edge="1">
          <mxGeometry width="50" height="50" relative="1" as="geometry">
            <mxPoint x="539.3199999999999" y="384.39000000000004" as="sourcePoint" />
            <mxPoint x="519" y="381.61" as="targetPoint" />
          </mxGeometry>
        </mxCell>
        <mxCell id="39" value="" style="endArrow=none;html=1;" parent="1" edge="1">
          <mxGeometry width="50" height="50" relative="1" as="geometry">
            <mxPoint x="70" y="1000" as="sourcePoint" />
            <mxPoint x="70" y="980" as="targetPoint" />
          </mxGeometry>
        </mxCell>
        <mxCell id="40" value="" style="endArrow=none;html=1;" parent="1" edge="1">
          <mxGeometry width="50" height="50" relative="1" as="geometry">
            <mxPoint x="160" y="950.82" as="sourcePoint" />
            <mxPoint x="180.5" y="950.82" as="targetPoint" />
          </mxGeometry>
        </mxCell>
        <mxCell id="41" value="" style="endArrow=none;html=1;" parent="1" edge="1">
          <mxGeometry width="50" height="50" relative="1" as="geometry">
            <mxPoint x="180" y="1080" as="sourcePoint" />
            <mxPoint x="180" y="950" as="targetPoint" />
          </mxGeometry>
        </mxCell>
        <mxCell id="43" value="" style="endArrow=none;html=1;exitX=0.5;exitY=0;exitDx=0;exitDy=0;entryX=0.5;entryY=1;entryDx=0;entryDy=0;" parent="1" source="Gjo6DUxktxaH3FMSYRhE-11" target="GProfhIi8R3kbPbWlugL-16" edge="1">
          <mxGeometry width="50" height="50" relative="1" as="geometry">
            <mxPoint x="-10" y="1250" as="sourcePoint" />
            <mxPoint x="40" y="1200" as="targetPoint" />
          </mxGeometry>
        </mxCell>
        <mxCell id="47" value="" style="shape=waypoint;sketch=0;fillStyle=solid;size=6;pointerEvents=1;points=[];fillColor=none;resizable=0;rotatable=0;perimeter=centerPerimeter;snapToPoint=1;" parent="1" vertex="1">
          <mxGeometry x="11" y="643" width="20" height="20" as="geometry" />
        </mxCell>
        <mxCell id="48" value="" style="shape=waypoint;sketch=0;fillStyle=solid;size=6;pointerEvents=1;points=[];fillColor=none;resizable=0;rotatable=0;perimeter=centerPerimeter;snapToPoint=1;" parent="1" vertex="1">
          <mxGeometry x="149" y="298.5" width="20" height="20" as="geometry" />
        </mxCell>
        <mxCell id="49" value="" style="shape=waypoint;sketch=0;fillStyle=solid;size=6;pointerEvents=1;points=[];fillColor=none;resizable=0;rotatable=0;perimeter=centerPerimeter;snapToPoint=1;" parent="1" vertex="1">
          <mxGeometry x="492" y="298" width="20" height="20" as="geometry" />
        </mxCell>
        <mxCell id="50" value="" style="shape=waypoint;sketch=0;fillStyle=solid;size=6;pointerEvents=1;points=[];fillColor=none;resizable=0;rotatable=0;perimeter=centerPerimeter;snapToPoint=1;" parent="1" vertex="1">
          <mxGeometry x="479" y="1042.5" width="20" height="20" as="geometry" />
        </mxCell>
        <mxCell id="51" value="" style="shape=waypoint;sketch=0;fillStyle=solid;size=6;pointerEvents=1;points=[];fillColor=none;resizable=0;rotatable=0;perimeter=centerPerimeter;snapToPoint=1;" parent="1" vertex="1">
          <mxGeometry x="59.5" y="991" width="20" height="20" as="geometry" />
        </mxCell>
        <mxCell id="53" value="" style="shape=waypoint;sketch=0;fillStyle=solid;size=6;pointerEvents=1;points=[];fillColor=none;resizable=0;rotatable=0;perimeter=centerPerimeter;snapToPoint=1;" parent="1" vertex="1">
          <mxGeometry x="135" y="1166" width="20" height="20" as="geometry" />
        </mxCell>
        <mxCell id="66" value="" style="shape=waypoint;sketch=0;fillStyle=solid;size=6;pointerEvents=1;points=[];fillColor=none;resizable=0;rotatable=0;perimeter=centerPerimeter;snapToPoint=1;" parent="1" vertex="1">
          <mxGeometry x="763" y="1106" width="20" height="20" as="geometry" />
        </mxCell>
        <mxCell id="69" value="" style="shape=waypoint;sketch=0;fillStyle=solid;size=6;pointerEvents=1;points=[];fillColor=none;resizable=0;rotatable=0;perimeter=centerPerimeter;snapToPoint=1;" parent="1" vertex="1">
          <mxGeometry x="885" y="729.94" width="20" height="20" as="geometry" />
        </mxCell>
        <mxCell id="70" value="" style="shape=waypoint;sketch=0;fillStyle=solid;size=6;pointerEvents=1;points=[];fillColor=none;resizable=0;rotatable=0;perimeter=centerPerimeter;snapToPoint=1;" parent="1" vertex="1">
          <mxGeometry x="1094" y="287.9999999999999" width="20" height="20" as="geometry" />
        </mxCell>
        <mxCell id="71" value="" style="endArrow=none;html=1;exitX=1;exitY=0.5;exitDx=0;exitDy=0;entryX=0;entryY=0.681;entryDx=0;entryDy=0;entryPerimeter=0;" parent="1" source="74" target="Gjo6DUxktxaH3FMSYRhE-10" edge="1">
          <mxGeometry width="50" height="50" relative="1" as="geometry">
            <mxPoint x="976" y="379" as="sourcePoint" />
            <mxPoint x="985.72" y="359" as="targetPoint" />
          </mxGeometry>
        </mxCell>
        <mxCell id="74" value="" style="ellipse;whiteSpace=wrap;html=1;aspect=fixed;" parent="1" vertex="1">
          <mxGeometry x="954" y="368" width="10" height="10" as="geometry" />
        </mxCell>
        <mxCell id="77" value="" style="shape=waypoint;sketch=0;fillStyle=solid;size=6;pointerEvents=1;points=[];fillColor=none;resizable=0;rotatable=0;perimeter=centerPerimeter;snapToPoint=1;" parent="1" vertex="1">
          <mxGeometry x="570" y="585" width="20" height="20" as="geometry" />
        </mxCell>
        <mxCell id="S2bqCWjt7zQeyICg8VKx-79" value="contatti" style="text;html=1;align=center;verticalAlign=middle;resizable=0;points=[];autosize=1;strokeColor=none;fillColor=none;" parent="1" vertex="1">
          <mxGeometry x="869" y="839" width="60" height="30" as="geometry" />
        </mxCell>
        <mxCell id="S2bqCWjt7zQeyICg8VKx-80" value="" style="ellipse;whiteSpace=wrap;html=1;aspect=fixed;" parent="1" vertex="1">
          <mxGeometry x="869" y="849" width="10" height="10" as="geometry" />
        </mxCell>
        <mxCell id="S2bqCWjt7zQeyICg8VKx-81" value="" style="endArrow=none;html=1;rounded=0;exitX=0.959;exitY=-0.002;exitDx=0;exitDy=0;exitPerimeter=0;" parent="1" edge="1">
          <mxGeometry width="50" height="50" relative="1" as="geometry">
            <mxPoint x="873.86" y="849" as="sourcePoint" />
            <mxPoint x="874" y="820" as="targetPoint" />
          </mxGeometry>
        </mxCell>
        <mxCell id="S2bqCWjt7zQeyICg8VKx-83" value="c.f." style="text;html=1;align=center;verticalAlign=middle;resizable=0;points=[];autosize=1;strokeColor=none;fillColor=none;" parent="1" vertex="1">
          <mxGeometry x="690" y="668" width="40" height="30" as="geometry" />
        </mxCell>
        <mxCell id="S2bqCWjt7zQeyICg8VKx-84" value="nome reparto" style="text;html=1;align=center;verticalAlign=middle;resizable=0;points=[];autosize=1;strokeColor=none;fillColor=none;" parent="1" vertex="1">
          <mxGeometry x="904" y="288" width="90" height="30" as="geometry" />
        </mxCell>
        <mxCell id="S2bqCWjt7zQeyICg8VKx-85" value="" style="ellipse;whiteSpace=wrap;html=1;aspect=fixed;" parent="1" vertex="1">
          <mxGeometry x="949" y="310.05999999999995" width="10" height="10" as="geometry" />
        </mxCell>
        <mxCell id="S2bqCWjt7zQeyICg8VKx-86" value="" style="endArrow=none;html=1;rounded=0;exitX=-0.003;exitY=0.105;exitDx=0;exitDy=0;exitPerimeter=0;" parent="1" source="Gjo6DUxktxaH3FMSYRhE-10" edge="1">
          <mxGeometry width="50" height="50" relative="1" as="geometry">
            <mxPoint x="959.14" y="340" as="sourcePoint" />
            <mxPoint x="958.9999999999999" y="318" as="targetPoint" />
          </mxGeometry>
        </mxCell>
        <mxCell id="S2bqCWjt7zQeyICg8VKx-91" value="Ricoveri" style="rounded=0;whiteSpace=wrap;html=1;" parent="1" vertex="1">
          <mxGeometry x="1000" y="596" width="120" height="60" as="geometry" />
        </mxCell>
        <mxCell id="S2bqCWjt7zQeyICg8VKx-92" value="avvenuti" style="shape=rhombus;perimeter=rhombusPerimeter;whiteSpace=wrap;html=1;align=center;" parent="1" vertex="1">
          <mxGeometry x="1000" y="440" width="120" height="60" as="geometry" />
        </mxCell>
        <mxCell id="S2bqCWjt7zQeyICg8VKx-94" value="" style="ellipse;whiteSpace=wrap;html=1;aspect=fixed;" parent="1" vertex="1">
          <mxGeometry x="1019" y="410" width="10" height="10" as="geometry" />
        </mxCell>
        <mxCell id="S2bqCWjt7zQeyICg8VKx-96" value="" style="endArrow=none;html=1;rounded=0;exitX=0.874;exitY=0.004;exitDx=0;exitDy=0;exitPerimeter=0;" parent="1" source="75" edge="1">
          <mxGeometry width="50" height="50" relative="1" as="geometry">
            <mxPoint x="1023.94" y="410" as="sourcePoint" />
            <mxPoint x="1023.8" y="388" as="targetPoint" />
          </mxGeometry>
        </mxCell>
        <mxCell id="S2bqCWjt7zQeyICg8VKx-97" value="" style="endArrow=none;html=1;rounded=0;" parent="1" target="75" edge="1">
          <mxGeometry width="50" height="50" relative="1" as="geometry">
            <mxPoint x="1023.94" y="410" as="sourcePoint" />
            <mxPoint x="1023.8" y="388" as="targetPoint" />
          </mxGeometry>
        </mxCell>
        <mxCell id="75" value="disponibile" style="text;html=1;align=center;verticalAlign=middle;resizable=0;points=[];autosize=1;strokeColor=none;fillColor=none;" parent="1" vertex="1">
          <mxGeometry x="954" y="410" width="80" height="30" as="geometry" />
        </mxCell>
        <mxCell id="S2bqCWjt7zQeyICg8VKx-99" value="" style="endArrow=none;html=1;rounded=0;exitX=0.5;exitY=0;exitDx=0;exitDy=0;" parent="1" source="S2bqCWjt7zQeyICg8VKx-91" edge="1">
          <mxGeometry width="50" height="50" relative="1" as="geometry">
            <mxPoint x="1010" y="550" as="sourcePoint" />
            <mxPoint x="1060" y="500" as="targetPoint" />
          </mxGeometry>
        </mxCell>
        <mxCell id="S2bqCWjt7zQeyICg8VKx-100" value="" style="endArrow=none;html=1;rounded=0;exitX=0.5;exitY=0;exitDx=0;exitDy=0;" parent="1" source="GProfhIi8R3kbPbWlugL-20" edge="1">
          <mxGeometry width="50" height="50" relative="1" as="geometry">
            <mxPoint x="1010" y="706" as="sourcePoint" />
            <mxPoint x="1060" y="656" as="targetPoint" />
          </mxGeometry>
        </mxCell>
        <mxCell id="S2bqCWjt7zQeyICg8VKx-104" value="situato" style="shape=rhombus;perimeter=rhombusPerimeter;whiteSpace=wrap;html=1;align=center;" parent="1" vertex="1">
          <mxGeometry x="680" y="328" width="120" height="60" as="geometry" />
        </mxCell>
        <mxCell id="S2bqCWjt7zQeyICg8VKx-105" value="" style="endArrow=none;html=1;rounded=0;entryX=0;entryY=0.5;entryDx=0;entryDy=0;" parent="1" target="S2bqCWjt7zQeyICg8VKx-104" edge="1">
          <mxGeometry width="50" height="50" relative="1" as="geometry">
            <mxPoint x="519" y="358" as="sourcePoint" />
            <mxPoint x="569" y="308" as="targetPoint" />
          </mxGeometry>
        </mxCell>
        <mxCell id="S2bqCWjt7zQeyICg8VKx-106" value="" style="endArrow=none;html=1;rounded=0;entryX=0;entryY=0.5;entryDx=0;entryDy=0;exitX=1;exitY=0.5;exitDx=0;exitDy=0;" parent="1" source="S2bqCWjt7zQeyICg8VKx-104" target="Gjo6DUxktxaH3FMSYRhE-10" edge="1">
          <mxGeometry width="50" height="50" relative="1" as="geometry">
            <mxPoint x="719" y="358" as="sourcePoint" />
            <mxPoint x="889" y="358" as="targetPoint" />
          </mxGeometry>
        </mxCell>
        <mxCell id="S2bqCWjt7zQeyICg8VKx-115" value="id&amp;nbsp;&lt;div&gt;camera&lt;/div&gt;" style="text;html=1;align=center;verticalAlign=middle;resizable=0;points=[];autosize=1;strokeColor=none;fillColor=none;" parent="1" vertex="1">
          <mxGeometry x="1060" y="676" width="60" height="40" as="geometry" />
        </mxCell>
        <mxCell id="S2bqCWjt7zQeyICg8VKx-116" value="c.f." style="text;html=1;align=center;verticalAlign=middle;resizable=0;points=[];autosize=1;strokeColor=none;fillColor=none;" parent="1" vertex="1">
          <mxGeometry x="1025" y="530" width="40" height="30" as="geometry" />
        </mxCell>
        <mxCell id="S2bqCWjt7zQeyICg8VKx-117" value="data&amp;nbsp;&lt;div&gt;ricovero&lt;/div&gt;" style="text;html=1;align=center;verticalAlign=middle;resizable=0;points=[];autosize=1;strokeColor=none;fillColor=none;" parent="1" vertex="1">
          <mxGeometry x="965" y="519" width="70" height="40" as="geometry" />
        </mxCell>
        <mxCell id="S2bqCWjt7zQeyICg8VKx-118" value="ora&amp;nbsp;&lt;div&gt;ricovero&lt;/div&gt;" style="text;html=1;align=center;verticalAlign=middle;resizable=0;points=[];autosize=1;strokeColor=none;fillColor=none;" parent="1" vertex="1">
          <mxGeometry x="980" y="668" width="70" height="40" as="geometry" />
        </mxCell>
        <mxCell id="S2bqCWjt7zQeyICg8VKx-119" value="data&amp;nbsp;&lt;div&gt;rilascio&lt;/div&gt;" style="text;html=1;align=center;verticalAlign=middle;resizable=0;points=[];autosize=1;strokeColor=none;fillColor=none;" parent="1" vertex="1">
          <mxGeometry x="925" y="616" width="60" height="40" as="geometry" />
        </mxCell>
        <mxCell id="S2bqCWjt7zQeyICg8VKx-120" value="ora&lt;div&gt;&amp;nbsp;rilascio&lt;/div&gt;" style="text;html=1;align=center;verticalAlign=middle;resizable=0;points=[];autosize=1;strokeColor=none;fillColor=none;" parent="1" vertex="1">
          <mxGeometry x="929" y="559" width="60" height="40" as="geometry" />
        </mxCell>
        <mxCell id="S2bqCWjt7zQeyICg8VKx-121" value="stato&lt;div&gt;&amp;nbsp;ricovero&lt;/div&gt;" style="text;html=1;align=center;verticalAlign=middle;resizable=0;points=[];autosize=1;strokeColor=none;fillColor=none;" parent="1" vertex="1">
          <mxGeometry x="1050" y="529" width="70" height="40" as="geometry" />
        </mxCell>
        <mxCell id="S2bqCWjt7zQeyICg8VKx-124" value="" style="ellipse;whiteSpace=wrap;html=1;aspect=fixed;" parent="1" vertex="1">
          <mxGeometry x="1040" y="552" width="10" height="10" as="geometry" />
        </mxCell>
        <mxCell id="S2bqCWjt7zQeyICg8VKx-125" value="" style="ellipse;whiteSpace=wrap;html=1;aspect=fixed;" parent="1" vertex="1">
          <mxGeometry x="1010" y="552" width="10" height="10" as="geometry" />
        </mxCell>
        <mxCell id="S2bqCWjt7zQeyICg8VKx-126" value="" style="ellipse;whiteSpace=wrap;html=1;aspect=fixed;" parent="1" vertex="1">
          <mxGeometry x="975" y="570.06" width="10" height="10" as="geometry" />
        </mxCell>
        <mxCell id="S2bqCWjt7zQeyICg8VKx-127" value="" style="ellipse;whiteSpace=wrap;html=1;aspect=fixed;" parent="1" vertex="1">
          <mxGeometry x="950" y="616" width="10" height="10" as="geometry" />
        </mxCell>
        <mxCell id="S2bqCWjt7zQeyICg8VKx-128" value="" style="ellipse;whiteSpace=wrap;html=1;aspect=fixed;" parent="1" vertex="1">
          <mxGeometry x="1025" y="676" width="10" height="10" as="geometry" />
        </mxCell>
        <mxCell id="S2bqCWjt7zQeyICg8VKx-129" value="" style="ellipse;whiteSpace=wrap;html=1;aspect=fixed;" parent="1" vertex="1">
          <mxGeometry x="1085" y="676" width="10" height="10" as="geometry" />
        </mxCell>
        <mxCell id="S2bqCWjt7zQeyICg8VKx-130" value="" style="endArrow=none;html=1;rounded=0;exitX=0.629;exitY=-0.008;exitDx=0;exitDy=0;exitPerimeter=0;" parent="1" source="72" edge="1">
          <mxGeometry width="50" height="50" relative="1" as="geometry">
            <mxPoint x="1025" y="619" as="sourcePoint" />
            <mxPoint x="1075" y="569" as="targetPoint" />
          </mxGeometry>
        </mxCell>
        <mxCell id="S2bqCWjt7zQeyICg8VKx-131" value="" style="endArrow=none;html=1;rounded=0;exitX=0.38;exitY=0.011;exitDx=0;exitDy=0;exitPerimeter=0;" parent="1" source="S2bqCWjt7zQeyICg8VKx-91" edge="1">
          <mxGeometry width="50" height="50" relative="1" as="geometry">
            <mxPoint x="995" y="612" as="sourcePoint" />
            <mxPoint x="1045" y="562" as="targetPoint" />
          </mxGeometry>
        </mxCell>
        <mxCell id="S2bqCWjt7zQeyICg8VKx-132" value="" style="endArrow=none;html=1;rounded=0;exitX=0.124;exitY=0.011;exitDx=0;exitDy=0;exitPerimeter=0;" parent="1" source="S2bqCWjt7zQeyICg8VKx-91" edge="1">
          <mxGeometry width="50" height="50" relative="1" as="geometry">
            <mxPoint x="965" y="612" as="sourcePoint" />
            <mxPoint x="1015" y="562" as="targetPoint" />
          </mxGeometry>
        </mxCell>
        <mxCell id="S2bqCWjt7zQeyICg8VKx-133" value="" style="endArrow=none;html=1;rounded=0;exitX=0.022;exitY=-0.003;exitDx=0;exitDy=0;exitPerimeter=0;" parent="1" source="S2bqCWjt7zQeyICg8VKx-91" edge="1">
          <mxGeometry width="50" height="50" relative="1" as="geometry">
            <mxPoint x="934" y="628" as="sourcePoint" />
            <mxPoint x="984" y="578" as="targetPoint" />
          </mxGeometry>
        </mxCell>
        <mxCell id="S2bqCWjt7zQeyICg8VKx-134" value="" style="endArrow=none;html=1;rounded=0;entryX=-0.014;entryY=0.417;entryDx=0;entryDy=0;entryPerimeter=0;" parent="1" target="S2bqCWjt7zQeyICg8VKx-91" edge="1">
          <mxGeometry width="50" height="50" relative="1" as="geometry">
            <mxPoint x="960" y="621" as="sourcePoint" />
            <mxPoint x="1010" y="571" as="targetPoint" />
          </mxGeometry>
        </mxCell>
        <mxCell id="S2bqCWjt7zQeyICg8VKx-135" value="" style="endArrow=none;html=1;rounded=0;entryX=0.25;entryY=1;entryDx=0;entryDy=0;" parent="1" target="S2bqCWjt7zQeyICg8VKx-91" edge="1">
          <mxGeometry width="50" height="50" relative="1" as="geometry">
            <mxPoint x="1030" y="676" as="sourcePoint" />
            <mxPoint x="1080" y="626" as="targetPoint" />
          </mxGeometry>
        </mxCell>
        <mxCell id="S2bqCWjt7zQeyICg8VKx-136" value="" style="endArrow=none;html=1;rounded=0;entryX=0.75;entryY=1;entryDx=0;entryDy=0;" parent="1" target="S2bqCWjt7zQeyICg8VKx-91" edge="1">
          <mxGeometry width="50" height="50" relative="1" as="geometry">
            <mxPoint x="1090" y="676" as="sourcePoint" />
            <mxPoint x="1140" y="626" as="targetPoint" />
          </mxGeometry>
        </mxCell>
        <mxCell id="S2bqCWjt7zQeyICg8VKx-138" value="" style="endArrow=none;html=1;rounded=0;exitX=0.629;exitY=-0.008;exitDx=0;exitDy=0;exitPerimeter=0;" parent="1" source="S2bqCWjt7zQeyICg8VKx-91" target="72" edge="1">
          <mxGeometry width="50" height="50" relative="1" as="geometry">
            <mxPoint x="1075" y="596" as="sourcePoint" />
            <mxPoint x="1075" y="569" as="targetPoint" />
          </mxGeometry>
        </mxCell>
        <mxCell id="72" value="" style="ellipse;whiteSpace=wrap;html=1;aspect=fixed;" parent="1" vertex="1">
          <mxGeometry x="1075" y="562.06" width="10" height="10" as="geometry" />
        </mxCell>
        <mxCell id="S2bqCWjt7zQeyICg8VKx-139" value="contatti" style="text;html=1;align=center;verticalAlign=middle;resizable=0;points=[];autosize=1;strokeColor=none;fillColor=none;" parent="1" vertex="1">
          <mxGeometry x="876" y="1019" width="60" height="30" as="geometry" />
        </mxCell>
        <mxCell id="S2bqCWjt7zQeyICg8VKx-140" value="" style="ellipse;whiteSpace=wrap;html=1;aspect=fixed;" parent="1" vertex="1">
          <mxGeometry x="900" y="1041" width="10" height="10" as="geometry" />
        </mxCell>
        <mxCell id="S2bqCWjt7zQeyICg8VKx-141" value="" style="endArrow=none;html=1;rounded=0;exitX=0.883;exitY=-0.006;exitDx=0;exitDy=0;exitPerimeter=0;" parent="1" source="Gjo6DUxktxaH3FMSYRhE-7" edge="1">
          <mxGeometry width="50" height="50" relative="1" as="geometry">
            <mxPoint x="856" y="1101" as="sourcePoint" />
            <mxPoint x="906" y="1051" as="targetPoint" />
          </mxGeometry>
        </mxCell>
        <mxCell id="S2bqCWjt7zQeyICg8VKx-142" value="c.f." style="text;html=1;align=center;verticalAlign=middle;resizable=0;points=[];autosize=1;strokeColor=none;fillColor=none;" parent="1" vertex="1">
          <mxGeometry x="801" y="1020" width="40" height="30" as="geometry" />
        </mxCell>
        <mxCell id="S2bqCWjt7zQeyICg8VKx-143" value="" style="ellipse;whiteSpace=wrap;html=1;aspect=fixed;" parent="1" vertex="1">
          <mxGeometry x="817.0000000000001" y="1041" width="10" height="10" as="geometry" />
        </mxCell>
        <mxCell id="S2bqCWjt7zQeyICg8VKx-144" value="" style="endArrow=none;html=1;rounded=0;exitX=0.883;exitY=-0.006;exitDx=0;exitDy=0;exitPerimeter=0;" parent="1" edge="1">
          <mxGeometry width="50" height="50" relative="1" as="geometry">
            <mxPoint x="821.79" y="1080" as="sourcePoint" />
            <mxPoint x="821.79" y="1051" as="targetPoint" />
          </mxGeometry>
        </mxCell>
        <mxCell id="S2bqCWjt7zQeyICg8VKx-146" value="Cure" style="rounded=0;whiteSpace=wrap;html=1;" parent="1" vertex="1">
          <mxGeometry x="401" y="761" width="120" height="60" as="geometry" />
        </mxCell>
        <mxCell id="S2bqCWjt7zQeyICg8VKx-150" value="id farmaco" style="text;html=1;align=center;verticalAlign=middle;resizable=0;points=[];autosize=1;strokeColor=none;fillColor=none;" parent="1" vertex="1">
          <mxGeometry x="334" y="722" width="80" height="30" as="geometry" />
        </mxCell>
        <mxCell id="S2bqCWjt7zQeyICg8VKx-151" value="id cura&amp;nbsp;" style="text;html=1;align=center;verticalAlign=middle;resizable=0;points=[];autosize=1;strokeColor=none;fillColor=none;" parent="1" vertex="1">
          <mxGeometry x="460" y="701" width="60" height="30" as="geometry" />
        </mxCell>
        <mxCell id="S2bqCWjt7zQeyICg8VKx-152" value="badge" style="text;html=1;align=center;verticalAlign=middle;resizable=0;points=[];autosize=1;strokeColor=none;fillColor=none;" parent="1" vertex="1">
          <mxGeometry x="486" y="713" width="60" height="30" as="geometry" />
        </mxCell>
        <mxCell id="S2bqCWjt7zQeyICg8VKx-153" value="c.f." style="text;html=1;align=center;verticalAlign=middle;resizable=0;points=[];autosize=1;strokeColor=none;fillColor=none;" parent="1" vertex="1">
          <mxGeometry x="501" y="831" width="40" height="30" as="geometry" />
        </mxCell>
        <mxCell id="S2bqCWjt7zQeyICg8VKx-154" value="data" style="text;html=1;align=center;verticalAlign=middle;resizable=0;points=[];autosize=1;strokeColor=none;fillColor=none;" parent="1" vertex="1">
          <mxGeometry x="330" y="1085" width="50" height="30" as="geometry" />
        </mxCell>
        <mxCell id="S2bqCWjt7zQeyICg8VKx-155" value="ora" style="text;html=1;align=center;verticalAlign=middle;resizable=0;points=[];autosize=1;strokeColor=none;fillColor=none;" parent="1" vertex="1">
          <mxGeometry x="534" y="733" width="40" height="30" as="geometry" />
        </mxCell>
        <mxCell id="S2bqCWjt7zQeyICg8VKx-156" value="" style="ellipse;whiteSpace=wrap;html=1;aspect=fixed;" parent="1" vertex="1">
          <mxGeometry x="546" y="753" width="10" height="10" as="geometry" />
        </mxCell>
        <mxCell id="S2bqCWjt7zQeyICg8VKx-158" value="" style="ellipse;whiteSpace=wrap;html=1;aspect=fixed;" parent="1" vertex="1">
          <mxGeometry x="506" y="733" width="10" height="10" as="geometry" />
        </mxCell>
        <mxCell id="S2bqCWjt7zQeyICg8VKx-159" value="" style="ellipse;whiteSpace=wrap;html=1;aspect=fixed;fillColor=#000000;" parent="1" vertex="1">
          <mxGeometry x="466" y="723" width="10" height="10" as="geometry" />
        </mxCell>
        <mxCell id="S2bqCWjt7zQeyICg8VKx-160" value="" style="ellipse;whiteSpace=wrap;html=1;aspect=fixed;" parent="1" vertex="1">
          <mxGeometry x="406" y="733" width="10" height="10" as="geometry" />
        </mxCell>
        <mxCell id="S2bqCWjt7zQeyICg8VKx-161" value="" style="ellipse;whiteSpace=wrap;html=1;aspect=fixed;" parent="1" vertex="1">
          <mxGeometry x="496" y="841" width="10" height="10" as="geometry" />
        </mxCell>
        <mxCell id="S2bqCWjt7zQeyICg8VKx-162" value="" style="endArrow=none;html=1;rounded=0;entryX=0.827;entryY=0.997;entryDx=0;entryDy=0;entryPerimeter=0;exitX=0.5;exitY=0;exitDx=0;exitDy=0;" parent="1" target="S2bqCWjt7zQeyICg8VKx-146" edge="1" source="S2bqCWjt7zQeyICg8VKx-161">
          <mxGeometry width="50" height="50" relative="1" as="geometry">
            <mxPoint x="466" y="831.19" as="sourcePoint" />
            <mxPoint x="500.39999999999986" y="831" as="targetPoint" />
          </mxGeometry>
        </mxCell>
        <mxCell id="S2bqCWjt7zQeyICg8VKx-163" value="" style="endArrow=none;html=1;rounded=0;exitX=0.085;exitY=-0.003;exitDx=0;exitDy=0;exitPerimeter=0;" parent="1" source="S2bqCWjt7zQeyICg8VKx-146" edge="1">
          <mxGeometry width="50" height="50" relative="1" as="geometry">
            <mxPoint x="361" y="792.6700000000001" as="sourcePoint" />
            <mxPoint x="411" y="742.6700000000001" as="targetPoint" />
          </mxGeometry>
        </mxCell>
        <mxCell id="S2bqCWjt7zQeyICg8VKx-164" value="" style="endArrow=none;html=1;rounded=0;exitX=0.579;exitY=0.006;exitDx=0;exitDy=0;exitPerimeter=0;" parent="1" source="S2bqCWjt7zQeyICg8VKx-146" edge="1">
          <mxGeometry width="50" height="50" relative="1" as="geometry">
            <mxPoint x="421" y="782.6700000000001" as="sourcePoint" />
            <mxPoint x="471" y="732.6700000000001" as="targetPoint" />
          </mxGeometry>
        </mxCell>
        <mxCell id="S2bqCWjt7zQeyICg8VKx-165" value="" style="endArrow=none;html=1;rounded=0;exitX=0.916;exitY=-0.005;exitDx=0;exitDy=0;exitPerimeter=0;" parent="1" source="S2bqCWjt7zQeyICg8VKx-146" edge="1">
          <mxGeometry width="50" height="50" relative="1" as="geometry">
            <mxPoint x="461" y="792.6700000000001" as="sourcePoint" />
            <mxPoint x="511" y="742.6700000000001" as="targetPoint" />
          </mxGeometry>
        </mxCell>
        <mxCell id="S2bqCWjt7zQeyICg8VKx-166" value="" style="endArrow=none;html=1;rounded=0;exitX=1.003;exitY=0.06;exitDx=0;exitDy=0;exitPerimeter=0;" parent="1" source="S2bqCWjt7zQeyICg8VKx-146" edge="1">
          <mxGeometry width="50" height="50" relative="1" as="geometry">
            <mxPoint x="496" y="809.6700000000001" as="sourcePoint" />
            <mxPoint x="546" y="759.6700000000001" as="targetPoint" />
          </mxGeometry>
        </mxCell>
        <mxCell id="S2bqCWjt7zQeyICg8VKx-167" value="" style="endArrow=none;html=1;rounded=0;exitX=1.005;exitY=0.281;exitDx=0;exitDy=0;exitPerimeter=0;entryX=0;entryY=0.5;entryDx=0;entryDy=0;" parent="1" edge="1" target="S2bqCWjt7zQeyICg8VKx-204">
          <mxGeometry width="50" height="50" relative="1" as="geometry">
            <mxPoint x="519.9999999999999" y="790.19" as="sourcePoint" />
            <mxPoint x="549.4" y="790.0000000000001" as="targetPoint" />
          </mxGeometry>
        </mxCell>
        <mxCell id="S2bqCWjt7zQeyICg8VKx-168" value="" style="endArrow=none;html=1;rounded=0;exitX=0.596;exitY=1.007;exitDx=0;exitDy=0;exitPerimeter=0;" parent="1" source="Gjo6DUxktxaH3FMSYRhE-12" target="EqLmaS4XHGkuEMbsUwe7-205" edge="1">
          <mxGeometry width="50" height="50" relative="1" as="geometry">
            <mxPoint x="111" y="981" as="sourcePoint" />
            <mxPoint x="111" y="1010" as="targetPoint" />
          </mxGeometry>
        </mxCell>
        <mxCell id="EqLmaS4XHGkuEMbsUwe7-205" value="" style="ellipse;whiteSpace=wrap;html=1;aspect=fixed;" parent="1" vertex="1">
          <mxGeometry x="106" y="1005" width="10" height="10" as="geometry" />
        </mxCell>
        <mxCell id="S2bqCWjt7zQeyICg8VKx-169" value="sala" style="text;html=1;align=center;verticalAlign=middle;resizable=0;points=[];autosize=1;strokeColor=none;fillColor=none;" parent="1" vertex="1">
          <mxGeometry x="124" y="995" width="50" height="30" as="geometry" />
        </mxCell>
        <mxCell id="S2bqCWjt7zQeyICg8VKx-171" value="" style="endArrow=none;html=1;rounded=0;exitX=0.596;exitY=1.007;exitDx=0;exitDy=0;exitPerimeter=0;" parent="1" edge="1">
          <mxGeometry width="50" height="50" relative="1" as="geometry">
            <mxPoint x="148.9" y="981" as="sourcePoint" />
            <mxPoint x="149" y="1000" as="targetPoint" />
          </mxGeometry>
        </mxCell>
        <mxCell id="S2bqCWjt7zQeyICg8VKx-172" value="" style="ellipse;whiteSpace=wrap;html=1;aspect=fixed;" parent="1" vertex="1">
          <mxGeometry x="144" y="995" width="10" height="10" as="geometry" />
        </mxCell>
        <mxCell id="S2bqCWjt7zQeyICg8VKx-173" value="c.f." style="text;html=1;align=center;verticalAlign=middle;resizable=0;points=[];autosize=1;strokeColor=none;fillColor=none;" parent="1" vertex="1">
          <mxGeometry x="-25" y="953" width="40" height="30" as="geometry" />
        </mxCell>
        <mxCell id="S2bqCWjt7zQeyICg8VKx-174" value="" style="ellipse;whiteSpace=wrap;html=1;aspect=fixed;" parent="1" vertex="1">
          <mxGeometry x="8" y="963" width="10" height="10" as="geometry" />
        </mxCell>
        <mxCell id="S2bqCWjt7zQeyICg8VKx-175" value="" style="endArrow=none;html=1;rounded=0;exitX=-0.005;exitY=0.816;exitDx=0;exitDy=0;exitPerimeter=0;" parent="1" source="Gjo6DUxktxaH3FMSYRhE-12" edge="1">
          <mxGeometry width="50" height="50" relative="1" as="geometry">
            <mxPoint x="37.38000000000011" y="969.92" as="sourcePoint" />
            <mxPoint x="18" y="970.08" as="targetPoint" />
          </mxGeometry>
        </mxCell>
        <mxCell id="S2bqCWjt7zQeyICg8VKx-176" value="" style="endArrow=none;html=1;rounded=0;entryX=1;entryY=0.5;entryDx=0;entryDy=0;exitX=0;exitY=0.5;exitDx=0;exitDy=0;" parent="1" source="Gjo6DUxktxaH3FMSYRhE-11" target="EqLmaS4XHGkuEMbsUwe7-198" edge="1">
          <mxGeometry width="50" height="50" relative="1" as="geometry">
            <mxPoint x="160" y="1230" as="sourcePoint" />
            <mxPoint x="210" y="1180" as="targetPoint" />
          </mxGeometry>
        </mxCell>
        <mxCell id="S2bqCWjt7zQeyICg8VKx-187" value="" style="endArrow=none;html=1;rounded=0;entryX=0;entryY=0.5;entryDx=0;entryDy=0;" parent="1" target="GProfhIi8R3kbPbWlugL-12" edge="1">
          <mxGeometry width="50" height="50" relative="1" as="geometry">
            <mxPoint x="159" y="358" as="sourcePoint" />
            <mxPoint x="209" y="308" as="targetPoint" />
          </mxGeometry>
        </mxCell>
        <mxCell id="S2bqCWjt7zQeyICg8VKx-188" value="" style="endArrow=none;html=1;rounded=0;entryX=0;entryY=0.5;entryDx=0;entryDy=0;" parent="1" target="Gjo6DUxktxaH3FMSYRhE-8" edge="1">
          <mxGeometry width="50" height="50" relative="1" as="geometry">
            <mxPoint x="319" y="358" as="sourcePoint" />
            <mxPoint x="369" y="308" as="targetPoint" />
          </mxGeometry>
        </mxCell>
        <mxCell id="S2bqCWjt7zQeyICg8VKx-196" value="telefono&lt;div&gt;reparto&lt;/div&gt;" style="text;html=1;align=center;verticalAlign=middle;resizable=0;points=[];autosize=1;strokeColor=none;fillColor=none;" parent="1" vertex="1">
          <mxGeometry x="542" y="305.5" width="70" height="40" as="geometry" />
        </mxCell>
        <mxCell id="S2bqCWjt7zQeyICg8VKx-197" value="" style="ellipse;whiteSpace=wrap;html=1;aspect=fixed;" parent="1" vertex="1">
          <mxGeometry x="547" y="326" width="10" height="10" as="geometry" />
        </mxCell>
        <mxCell id="S2bqCWjt7zQeyICg8VKx-198" value="" style="endArrow=none;html=1;rounded=0;exitX=0;exitY=0.5;exitDx=0;exitDy=0;entryX=1.006;entryY=0.158;entryDx=0;entryDy=0;entryPerimeter=0;" parent="1" target="Gjo6DUxktxaH3FMSYRhE-8" edge="1">
          <mxGeometry width="50" height="50" relative="1" as="geometry">
            <mxPoint x="547" y="332.19" as="sourcePoint" />
            <mxPoint x="522" y="329.8" as="targetPoint" />
          </mxGeometry>
        </mxCell>
        <mxCell id="S2bqCWjt7zQeyICg8VKx-204" value="sono&amp;nbsp;&lt;div&gt;stati&lt;/div&gt;" style="shape=rhombus;perimeter=rhombusPerimeter;whiteSpace=wrap;html=1;align=center;" parent="1" vertex="1">
          <mxGeometry x="580" y="760" width="120" height="60" as="geometry" />
        </mxCell>
        <mxCell id="S2bqCWjt7zQeyICg8VKx-207" value="" style="endArrow=none;html=1;rounded=0;" parent="1" edge="1">
          <mxGeometry width="50" height="50" relative="1" as="geometry">
            <mxPoint x="700" y="1080.864917652027" as="sourcePoint" />
            <mxPoint x="700" y="849" as="targetPoint" />
          </mxGeometry>
        </mxCell>
        <mxCell id="82" value="" style="endArrow=none;html=1;entryX=0;entryY=0.5;entryDx=0;entryDy=0;" parent="1" edge="1" target="S2bqCWjt7zQeyICg8VKx-146">
          <mxGeometry width="50" height="50" relative="1" as="geometry">
            <mxPoint x="320" y="790.76" as="sourcePoint" />
            <mxPoint x="390" y="790.76" as="targetPoint" />
          </mxGeometry>
        </mxCell>
        <mxCell id="84" value="" style="endArrow=none;html=1;entryX=0.5;entryY=1;entryDx=0;entryDy=0;exitX=0.5;exitY=0;exitDx=0;exitDy=0;" parent="1" source="GProfhIi8R3kbPbWlugL-11" target="Gjo6DUxktxaH3FMSYRhE-8" edge="1">
          <mxGeometry width="50" height="50" relative="1" as="geometry">
            <mxPoint x="420" y="440" as="sourcePoint" />
            <mxPoint x="470" y="390" as="targetPoint" />
          </mxGeometry>
        </mxCell>
        <mxCell id="85" value="" style="endArrow=none;html=1;exitX=0;exitY=0.5;exitDx=0;exitDy=0;" parent="1" source="GProfhIi8R3kbPbWlugL-11" edge="1">
          <mxGeometry width="50" height="50" relative="1" as="geometry">
            <mxPoint x="350" y="540" as="sourcePoint" />
            <mxPoint x="100" y="490" as="targetPoint" />
          </mxGeometry>
        </mxCell>
        <mxCell id="86" value="" style="endArrow=none;html=1;exitX=0.5;exitY=0;exitDx=0;exitDy=0;" parent="1" source="Gjo6DUxktxaH3FMSYRhE-1" edge="1">
          <mxGeometry width="50" height="50" relative="1" as="geometry">
            <mxPoint x="100" y="560" as="sourcePoint" />
            <mxPoint x="100" y="490" as="targetPoint" />
          </mxGeometry>
        </mxCell>
        <mxCell id="87" value="" style="endArrow=none;html=1;entryX=0.5;entryY=0;entryDx=0;entryDy=0;exitX=0.5;exitY=1;exitDx=0;exitDy=0;" parent="1" source="Gjo6DUxktxaH3FMSYRhE-10" target="S2bqCWjt7zQeyICg8VKx-92" edge="1">
          <mxGeometry width="50" height="50" relative="1" as="geometry">
            <mxPoint x="1210" y="440" as="sourcePoint" />
            <mxPoint x="1260" y="390" as="targetPoint" />
          </mxGeometry>
        </mxCell>
        <mxCell id="vOjiYVgHplgm8qUrO-PQ-91" value="" style="endArrow=none;html=1;rounded=0;exitX=0.5;exitY=0;exitDx=0;exitDy=0;" edge="1" parent="1" source="Gjo6DUxktxaH3FMSYRhE-5">
          <mxGeometry width="50" height="50" relative="1" as="geometry">
            <mxPoint x="810" y="710" as="sourcePoint" />
            <mxPoint x="860" y="660" as="targetPoint" />
          </mxGeometry>
        </mxCell>
        <mxCell id="vOjiYVgHplgm8qUrO-PQ-92" value="" style="endArrow=none;html=1;rounded=0;entryX=0;entryY=0.5;entryDx=0;entryDy=0;" edge="1" parent="1" target="Gjo6DUxktxaH3FMSYRhE-5">
          <mxGeometry width="50" height="50" relative="1" as="geometry">
            <mxPoint x="700" y="790" as="sourcePoint" />
            <mxPoint x="720" y="790" as="targetPoint" />
          </mxGeometry>
        </mxCell>
        <mxCell id="vOjiYVgHplgm8qUrO-PQ-93" value="" style="ellipse;whiteSpace=wrap;html=1;aspect=fixed;" vertex="1" parent="1">
          <mxGeometry x="369" y="1096" width="10" height="10" as="geometry" />
        </mxCell>
        <mxCell id="vOjiYVgHplgm8qUrO-PQ-94" value="" style="endArrow=none;html=1;rounded=0;entryX=-0.003;entryY=0.647;entryDx=0;entryDy=0;entryPerimeter=0;" edge="1" parent="1">
          <mxGeometry width="50" height="50" relative="1" as="geometry">
            <mxPoint x="380" y="1100.87" as="sourcePoint" />
            <mxPoint x="399" y="1100.87" as="targetPoint" />
          </mxGeometry>
        </mxCell>
        <mxCell id="vOjiYVgHplgm8qUrO-PQ-95" value="usati" style="shape=rhombus;perimeter=rhombusPerimeter;whiteSpace=wrap;html=1;align=center;" vertex="1" parent="1">
          <mxGeometry x="400" y="920" width="120" height="60" as="geometry" />
        </mxCell>
        <mxCell id="vOjiYVgHplgm8qUrO-PQ-97" value="" style="endArrow=none;html=1;rounded=0;exitX=0.5;exitY=0;exitDx=0;exitDy=0;" edge="1" parent="1" source="vOjiYVgHplgm8qUrO-PQ-95">
          <mxGeometry width="50" height="50" relative="1" as="geometry">
            <mxPoint x="410" y="870" as="sourcePoint" />
            <mxPoint x="460" y="820" as="targetPoint" />
          </mxGeometry>
        </mxCell>
        <mxCell id="vOjiYVgHplgm8qUrO-PQ-98" value="" style="endArrow=none;html=1;rounded=0;exitX=0.5;exitY=0;exitDx=0;exitDy=0;" edge="1" parent="1" source="Gjo6DUxktxaH3FMSYRhE-15">
          <mxGeometry width="50" height="50" relative="1" as="geometry">
            <mxPoint x="410" y="1030" as="sourcePoint" />
            <mxPoint x="460" y="980" as="targetPoint" />
          </mxGeometry>
        </mxCell>
        <mxCell id="vOjiYVgHplgm8qUrO-PQ-99" value="" style="endArrow=none;html=1;rounded=0;" edge="1" parent="1">
          <mxGeometry width="50" height="50" relative="1" as="geometry">
            <mxPoint x="390" y="1230" as="sourcePoint" />
            <mxPoint x="400" y="1230" as="targetPoint" />
          </mxGeometry>
        </mxCell>
        <mxCell id="vOjiYVgHplgm8qUrO-PQ-101" value="" style="endArrow=none;html=1;rounded=0;" edge="1" parent="1">
          <mxGeometry width="50" height="50" relative="1" as="geometry">
            <mxPoint x="180" y="1080" as="sourcePoint" />
            <mxPoint x="240" y="1120" as="targetPoint" />
          </mxGeometry>
        </mxCell>
        <mxCell id="vOjiYVgHplgm8qUrO-PQ-104" value="" style="endArrow=none;html=1;rounded=0;" edge="1" parent="1">
          <mxGeometry width="50" height="50" relative="1" as="geometry">
            <mxPoint x="640" y="1120" as="sourcePoint" />
            <mxPoint x="700" y="1080" as="targetPoint" />
          </mxGeometry>
        </mxCell>
        <mxCell id="vOjiYVgHplgm8qUrO-PQ-106" value="" style="endArrow=none;html=1;rounded=0;" edge="1" parent="1">
          <mxGeometry width="50" height="50" relative="1" as="geometry">
            <mxPoint x="520" y="1230" as="sourcePoint" />
            <mxPoint x="640" y="1230" as="targetPoint" />
          </mxGeometry>
        </mxCell>
        <mxCell id="vOjiYVgHplgm8qUrO-PQ-107" value="" style="endArrow=none;html=1;rounded=0;" edge="1" parent="1">
          <mxGeometry width="50" height="50" relative="1" as="geometry">
            <mxPoint x="640" y="1230" as="sourcePoint" />
            <mxPoint x="640" y="1120" as="targetPoint" />
          </mxGeometry>
        </mxCell>
        <mxCell id="vOjiYVgHplgm8qUrO-PQ-108" value="" style="endArrow=none;html=1;rounded=0;" edge="1" parent="1">
          <mxGeometry width="50" height="50" relative="1" as="geometry">
            <mxPoint x="240" y="1230" as="sourcePoint" />
            <mxPoint x="240" y="1120" as="targetPoint" />
          </mxGeometry>
        </mxCell>
        <mxCell id="vOjiYVgHplgm8qUrO-PQ-109" value="" style="endArrow=none;html=1;rounded=0;" edge="1" parent="1">
          <mxGeometry width="50" height="50" relative="1" as="geometry">
            <mxPoint x="240" y="1230" as="sourcePoint" />
            <mxPoint x="400" y="1230" as="targetPoint" />
          </mxGeometry>
        </mxCell>
        <mxCell id="vOjiYVgHplgm8qUrO-PQ-110" value="reparto" style="text;html=1;align=center;verticalAlign=middle;resizable=0;points=[];autosize=1;strokeColor=none;fillColor=none;" vertex="1" parent="1">
          <mxGeometry x="14" y="406.5" width="60" height="30" as="geometry" />
        </mxCell>
        <mxCell id="vOjiYVgHplgm8qUrO-PQ-112" value="" style="ellipse;whiteSpace=wrap;html=1;aspect=fixed;" vertex="1" parent="1">
          <mxGeometry x="64.5" y="418" width="10" height="10" as="geometry" />
        </mxCell>
        <mxCell id="vOjiYVgHplgm8qUrO-PQ-113" value="" style="endArrow=none;html=1;" edge="1" parent="1">
          <mxGeometry width="50" height="50" relative="1" as="geometry">
            <mxPoint x="69.37" y="418.5" as="sourcePoint" />
            <mxPoint x="69.37" y="388.5" as="targetPoint" />
          </mxGeometry>
        </mxCell>
      </root>
    </mxGraphModel>
  </diagram>
</mxfile>
